<svg xmlns="http://www.w3.org/2000/svg" xmlns:xlink="http://www.w3.org/1999/xlink" width="1920" zoomAndPan="magnify" viewBox="0 0 1440 809.999993" height="1080" preserveAspectRatio="xMidYMid meet" version="1.0"><defs><clipPath id="ae83c1addc"><path d="M 490.195312 176.449219 L 832 176.449219 L 832 518 L 490.195312 518 Z M 490.195312 176.449219 " clip-rule="nonzero"/></clipPath><clipPath id="1f7526d37d"><path d="M 718.488281 176.398438 C 601.820312 176.398438 609.101562 226.9375 609.101562 226.9375 L 609.230469 279.296875 L 720.558594 279.296875 L 720.558594 295.015625 L 565.015625 295.015625 C 565.015625 295.015625 490.363281 286.558594 490.363281 404.144531 C 490.363281 521.738281 555.519531 517.566406 555.519531 517.566406 L 594.40625 517.566406 L 594.40625 462.992188 C 594.40625 462.992188 592.308594 397.90625 658.523438 397.90625 L 768.945312 397.90625 C 768.945312 397.90625 830.972656 398.910156 830.972656 338.015625 L 830.972656 237.332031 C 830.972656 237.332031 840.402344 176.398438 718.488281 176.398438 L 718.488281 176.402344 Z M 657.09375 211.609375 C 668.171875 211.609375 677.117188 220.550781 677.117188 231.613281 C 677.117188 242.679688 668.171875 251.621094 657.09375 251.621094 C 646.015625 251.621094 637.066406 242.679688 637.066406 231.613281 C 637.066406 220.550781 646.015625 211.609375 657.09375 211.609375 Z M 657.09375 211.609375 " clip-rule="nonzero"/></clipPath><linearGradient x1="0.0041684" gradientTransform="matrix(340.778897, 0, 0, 341.184167, 490.362272, 176.400288)" y1="-0.00405725" x2="1.027757" gradientUnits="userSpaceOnUse" y2="1.01158" id="890f267b34"><stop stop-opacity="1" stop-color="rgb(21.958923%, 49.409485%, 72.158813%)" offset="0"/><stop stop-opacity="1" stop-color="rgb(21.957397%, 49.3927%, 72.131348%)" offset="0.125"/><stop stop-opacity="1" stop-color="rgb(21.946716%, 49.278259%, 71.936035%)" offset="0.140625"/><stop stop-opacity="1" stop-color="rgb(21.928406%, 49.081421%, 71.59729%)" offset="0.15625"/><stop stop-opacity="1" stop-color="rgb(21.908569%, 48.884583%, 71.258545%)" offset="0.171875"/><stop stop-opacity="1" stop-color="rgb(21.890259%, 48.686218%, 70.9198%)" offset="0.1875"/><stop stop-opacity="1" stop-color="rgb(21.871948%, 48.48938%, 70.581055%)" offset="0.203125"/><stop stop-opacity="1" stop-color="rgb(21.853638%, 48.292542%, 70.24231%)" offset="0.21875"/><stop stop-opacity="1" stop-color="rgb(21.833801%, 48.094177%, 69.903564%)" offset="0.234375"/><stop stop-opacity="1" stop-color="rgb(21.815491%, 47.897339%, 69.566345%)" offset="0.25"/><stop stop-opacity="1" stop-color="rgb(21.79718%, 47.698975%, 69.2276%)" offset="0.265625"/><stop stop-opacity="1" stop-color="rgb(21.77887%, 47.502136%, 68.888855%)" offset="0.28125"/><stop stop-opacity="1" stop-color="rgb(21.759033%, 47.305298%, 68.55011%)" offset="0.296875"/><stop stop-opacity="1" stop-color="rgb(21.740723%, 47.106934%, 68.211365%)" offset="0.3125"/><stop stop-opacity="1" stop-color="rgb(21.722412%, 46.910095%, 67.87262%)" offset="0.328125"/><stop stop-opacity="1" stop-color="rgb(21.704102%, 46.713257%, 67.533875%)" offset="0.34375"/><stop stop-opacity="1" stop-color="rgb(21.684265%, 46.514893%, 67.195129%)" offset="0.359375"/><stop stop-opacity="1" stop-color="rgb(21.665955%, 46.318054%, 66.856384%)" offset="0.375"/><stop stop-opacity="1" stop-color="rgb(21.647644%, 46.11969%, 66.517639%)" offset="0.390625"/><stop stop-opacity="1" stop-color="rgb(21.629333%, 45.922852%, 66.178894%)" offset="0.40625"/><stop stop-opacity="1" stop-color="rgb(21.609497%, 45.726013%, 65.840149%)" offset="0.421875"/><stop stop-opacity="1" stop-color="rgb(21.591187%, 45.527649%, 65.501404%)" offset="0.4375"/><stop stop-opacity="1" stop-color="rgb(21.572876%, 45.330811%, 65.162659%)" offset="0.453125"/><stop stop-opacity="1" stop-color="rgb(21.554565%, 45.133972%, 64.823914%)" offset="0.46875"/><stop stop-opacity="1" stop-color="rgb(21.534729%, 44.935608%, 64.485168%)" offset="0.484375"/><stop stop-opacity="1" stop-color="rgb(21.516418%, 44.73877%, 64.146423%)" offset="0.494335"/><stop stop-opacity="1" stop-color="rgb(21.507263%, 44.641113%, 63.977051%)" offset="0.5"/><stop stop-opacity="1" stop-color="rgb(21.498108%, 44.541931%, 63.807678%)" offset="0.505665"/><stop stop-opacity="1" stop-color="rgb(21.488953%, 44.442749%, 63.638306%)" offset="0.515625"/><stop stop-opacity="1" stop-color="rgb(21.478271%, 44.343567%, 63.468933%)" offset="0.53125"/><stop stop-opacity="1" stop-color="rgb(21.459961%, 44.146729%, 63.130188%)" offset="0.546875"/><stop stop-opacity="1" stop-color="rgb(21.44165%, 43.948364%, 62.791443%)" offset="0.5625"/><stop stop-opacity="1" stop-color="rgb(21.42334%, 43.751526%, 62.452698%)" offset="0.578125"/><stop stop-opacity="1" stop-color="rgb(21.403503%, 43.554688%, 62.115479%)" offset="0.59375"/><stop stop-opacity="1" stop-color="rgb(21.385193%, 43.356323%, 61.776733%)" offset="0.609375"/><stop stop-opacity="1" stop-color="rgb(21.366882%, 43.159485%, 61.437988%)" offset="0.625"/><stop stop-opacity="1" stop-color="rgb(21.348572%, 42.962646%, 61.099243%)" offset="0.640625"/><stop stop-opacity="1" stop-color="rgb(21.328735%, 42.764282%, 60.760498%)" offset="0.65625"/><stop stop-opacity="1" stop-color="rgb(21.310425%, 42.567444%, 60.421753%)" offset="0.671875"/><stop stop-opacity="1" stop-color="rgb(21.292114%, 42.36908%, 60.083008%)" offset="0.6875"/><stop stop-opacity="1" stop-color="rgb(21.273804%, 42.172241%, 59.744263%)" offset="0.703125"/><stop stop-opacity="1" stop-color="rgb(21.253967%, 41.975403%, 59.405518%)" offset="0.71875"/><stop stop-opacity="1" stop-color="rgb(21.235657%, 41.777039%, 59.066772%)" offset="0.734375"/><stop stop-opacity="1" stop-color="rgb(21.217346%, 41.5802%, 58.728027%)" offset="0.75"/><stop stop-opacity="1" stop-color="rgb(21.199036%, 41.383362%, 58.389282%)" offset="0.765625"/><stop stop-opacity="1" stop-color="rgb(21.183777%, 41.230774%, 58.129883%)" offset="0.78125"/><stop stop-opacity="1" stop-color="rgb(21.179199%, 41.178894%, 58.039856%)" offset="0.8125"/><stop stop-opacity="1" stop-color="rgb(21.179199%, 41.178894%, 58.039856%)" offset="0.875"/><stop stop-opacity="1" stop-color="rgb(21.179199%, 41.178894%, 58.039856%)" offset="1"/></linearGradient><clipPath id="66a3fcbffa"><path d="M 609 291 L 949.945312 291 L 949.945312 633.199219 L 609 633.199219 Z M 609 291 " clip-rule="nonzero"/></clipPath><clipPath id="b759fea2ec"><path d="M 721.800781 633.074219 C 838.457031 633.074219 831.167969 582.527344 831.167969 582.527344 L 831.042969 530.167969 L 719.710938 530.167969 L 719.710938 514.457031 L 875.257812 514.457031 C 875.257812 514.457031 949.914062 522.902344 949.914062 405.328125 C 949.914062 287.738281 884.757812 291.90625 884.757812 291.90625 L 845.871094 291.90625 L 845.871094 346.46875 C 845.871094 346.46875 847.957031 411.566406 781.757812 411.566406 L 671.324219 411.566406 C 671.324219 411.566406 609.296875 410.558594 609.296875 471.460938 L 609.296875 572.136719 C 609.296875 572.136719 599.875 633.074219 721.800781 633.074219 Z M 783.179688 597.859375 C 772.113281 597.859375 763.152344 588.910156 763.152344 577.855469 C 763.152344 566.78125 772.113281 557.847656 783.179688 557.847656 C 794.261719 557.847656 803.207031 566.78125 803.207031 577.855469 C 803.207031 588.910156 794.261719 597.859375 783.179688 597.859375 Z M 783.179688 597.859375 " clip-rule="nonzero"/></clipPath><linearGradient x1="-0.0326453" gradientTransform="matrix(340.789247, 0, 0, 341.185877, 609.126651, 291.888437)" y1="-0.00636589" x2="1.013978" gradientUnits="userSpaceOnUse" y2="0.985247" id="10a55b2ab6"><stop stop-opacity="1" stop-color="rgb(100%, 87.838745%, 32.159424%)" offset="0"/><stop stop-opacity="1" stop-color="rgb(100%, 87.838745%, 32.159424%)" offset="0.125"/><stop stop-opacity="1" stop-color="rgb(100%, 87.838745%, 32.159424%)" offset="0.1875"/><stop stop-opacity="1" stop-color="rgb(100%, 87.799072%, 32.113647%)" offset="0.21875"/><stop stop-opacity="1" stop-color="rgb(100%, 87.6297%, 31.919861%)" offset="0.234375"/><stop stop-opacity="1" stop-color="rgb(100%, 87.3703%, 31.625366%)" offset="0.25"/><stop stop-opacity="1" stop-color="rgb(100%, 87.110901%, 31.329346%)" offset="0.265625"/><stop stop-opacity="1" stop-color="rgb(100%, 86.849976%, 31.033325%)" offset="0.28125"/><stop stop-opacity="1" stop-color="rgb(100%, 86.590576%, 30.738831%)" offset="0.296875"/><stop stop-opacity="1" stop-color="rgb(100%, 86.331177%, 30.44281%)" offset="0.3125"/><stop stop-opacity="1" stop-color="rgb(100%, 86.071777%, 30.14679%)" offset="0.328125"/><stop stop-opacity="1" stop-color="rgb(100%, 85.812378%, 29.852295%)" offset="0.34375"/><stop stop-opacity="1" stop-color="rgb(100%, 85.552979%, 29.556274%)" offset="0.359375"/><stop stop-opacity="1" stop-color="rgb(100%, 85.292053%, 29.26178%)" offset="0.375"/><stop stop-opacity="1" stop-color="rgb(100%, 85.032654%, 28.965759%)" offset="0.390625"/><stop stop-opacity="1" stop-color="rgb(100%, 84.773254%, 28.669739%)" offset="0.40625"/><stop stop-opacity="1" stop-color="rgb(100%, 84.513855%, 28.375244%)" offset="0.421875"/><stop stop-opacity="1" stop-color="rgb(100%, 84.254456%, 28.079224%)" offset="0.4375"/><stop stop-opacity="1" stop-color="rgb(100%, 83.995056%, 27.783203%)" offset="0.453125"/><stop stop-opacity="1" stop-color="rgb(100%, 83.735657%, 27.488708%)" offset="0.46875"/><stop stop-opacity="1" stop-color="rgb(100%, 83.474731%, 27.192688%)" offset="0.482837"/><stop stop-opacity="1" stop-color="rgb(100%, 83.345032%, 27.044678%)" offset="0.484375"/><stop stop-opacity="1" stop-color="rgb(100%, 83.215332%, 26.896667%)" offset="0.5"/><stop stop-opacity="1" stop-color="rgb(100%, 82.955933%, 26.602173%)" offset="0.515625"/><stop stop-opacity="1" stop-color="rgb(100%, 82.696533%, 26.306152%)" offset="0.517163"/><stop stop-opacity="1" stop-color="rgb(100%, 82.566833%, 26.158142%)" offset="0.53125"/><stop stop-opacity="1" stop-color="rgb(100%, 82.437134%, 26.010132%)" offset="0.546875"/><stop stop-opacity="1" stop-color="rgb(100%, 82.177734%, 25.715637%)" offset="0.5625"/><stop stop-opacity="1" stop-color="rgb(100%, 81.916809%, 25.419617%)" offset="0.578125"/><stop stop-opacity="1" stop-color="rgb(100%, 81.65741%, 25.123596%)" offset="0.59375"/><stop stop-opacity="1" stop-color="rgb(100%, 81.39801%, 24.829102%)" offset="0.609375"/><stop stop-opacity="1" stop-color="rgb(100%, 81.138611%, 24.533081%)" offset="0.625"/><stop stop-opacity="1" stop-color="rgb(100%, 80.879211%, 24.237061%)" offset="0.640625"/><stop stop-opacity="1" stop-color="rgb(100%, 80.619812%, 23.942566%)" offset="0.65625"/><stop stop-opacity="1" stop-color="rgb(100%, 80.358887%, 23.646545%)" offset="0.671875"/><stop stop-opacity="1" stop-color="rgb(100%, 80.099487%, 23.350525%)" offset="0.6875"/><stop stop-opacity="1" stop-color="rgb(100%, 79.840088%, 23.05603%)" offset="0.703125"/><stop stop-opacity="1" stop-color="rgb(100%, 79.580688%, 22.76001%)" offset="0.71875"/><stop stop-opacity="1" stop-color="rgb(100%, 79.321289%, 22.463989%)" offset="0.734375"/><stop stop-opacity="1" stop-color="rgb(100%, 79.06189%, 22.169495%)" offset="0.75"/><stop stop-opacity="1" stop-color="rgb(100%, 78.80249%, 21.873474%)" offset="0.765625"/><stop stop-opacity="1" stop-color="rgb(100%, 78.541565%, 21.578979%)" offset="0.78125"/><stop stop-opacity="1" stop-color="rgb(100%, 78.282166%, 21.282959%)" offset="0.796875"/><stop stop-opacity="1" stop-color="rgb(100%, 78.022766%, 20.986938%)" offset="0.8125"/><stop stop-opacity="1" stop-color="rgb(100%, 77.763367%, 20.692444%)" offset="0.828125"/><stop stop-opacity="1" stop-color="rgb(100%, 77.503967%, 20.396423%)" offset="0.84375"/><stop stop-opacity="1" stop-color="rgb(100%, 77.244568%, 20.100403%)" offset="0.859375"/><stop stop-opacity="1" stop-color="rgb(100%, 76.983643%, 19.805908%)" offset="0.875"/><stop stop-opacity="1" stop-color="rgb(100%, 76.724243%, 19.509888%)" offset="0.890625"/><stop stop-opacity="1" stop-color="rgb(100%, 76.531982%, 19.290161%)" offset="0.90625"/><stop stop-opacity="1" stop-color="rgb(100%, 76.469421%, 19.219971%)" offset="0.9375"/><stop stop-opacity="1" stop-color="rgb(100%, 76.469421%, 19.219971%)" offset="1"/></linearGradient><clipPath id="02c33659eb"><path d="M 995 243 L 1358 243 L 1358 567 L 995 567 Z M 995 243 " clip-rule="nonzero"/></clipPath></defs><path fill="#77b255" d="M 741.046875 92.902344 C 736.410156 95.984375 732.273438 99.585938 728.703125 103.285156 C 728.160156 85.089844 723.789062 61.5625 699.679688 50.042969 C 694.910156 24.09375 639.289062 37.273438 644.261719 39.796875 C 654.179688 44.808594 659.457031 57.570312 665.835938 64.289062 C 677.207031 76.253906 689.851562 76.992188 696.140625 67.621094 C 711.003906 77.28125 711.980469 95.605469 711.527344 115.1875 C 711.476562 117.355469 711.429688 119.367188 711.429688 121.199219 L 711.429688 181.199219 C 711.429688 185.929688 728.570312 185.929688 728.570312 181.199219 L 728.570312 131.953125 C 730.894531 127.867188 737.664062 116.933594 747.558594 109.265625 C 754.355469 115.238281 765.308594 113.328125 775.253906 102.859375 C 781.636719 96.144531 785.082031 83.386719 795 78.367188 C 800.234375 75.71875 740.136719 61.25 741.046875 92.902344 Z M 741.046875 92.902344 " fill-opacity="1" fill-rule="nonzero"/><g clip-path="url(#ae83c1addc)"><g clip-path="url(#1f7526d37d)"><path fill="url(#890f267b34)" d="M 490.363281 176.449219 L 490.363281 521.738281 L 840.402344 521.738281 L 840.402344 176.449219 Z M 490.363281 176.449219 " fill-rule="nonzero"/></g></g><g clip-path="url(#66a3fcbffa)"><g clip-path="url(#b759fea2ec)"><path fill="url(#10a55b2ab6)" d="M 599.875 287.738281 L 599.875 633.074219 L 949.914062 633.074219 L 949.914062 287.738281 Z M 599.875 287.738281 " fill-rule="nonzero"/></g></g><path fill="#ffcc4d" d="M 405 405 C 405 494.46875 332.46875 567 243 567 C 153.539062 567 81 494.46875 81 405 C 81 315.539062 153.539062 243 243 243 C 332.46875 243 405 315.539062 405 405 " fill-opacity="1" fill-rule="nonzero"/><path fill="#664500" d="M 236.808594 401.507812 C 235.222656 400.222656 232.964844 400.183594 231.316406 401.382812 C 231.210938 401.464844 219.976562 409.5 198 409.5 C 176.03125 409.5 164.789062 401.464844 164.699219 401.398438 C 163.054688 400.167969 160.785156 400.203125 159.199219 401.480469 C 157.597656 402.757812 157.058594 404.953125 157.886719 406.828125 C 158.425781 408.042969 171.386719 436.5 198 436.5 C 224.621094 436.5 237.574219 408.042969 238.113281 406.828125 C 238.941406 404.964844 238.402344 402.785156 236.808594 401.507812 Z M 326.808594 401.507812 C 325.222656 400.222656 322.972656 400.175781 321.316406 401.382812 C 321.210938 401.464844 309.96875 409.5 288 409.5 C 266.039062 409.5 254.789062 401.464844 254.699219 401.398438 C 253.054688 400.167969 250.792969 400.203125 249.199219 401.480469 C 247.597656 402.757812 247.058594 404.953125 247.886719 406.828125 C 248.425781 408.042969 261.386719 436.5 288 436.5 C 314.621094 436.5 327.574219 408.042969 328.113281 406.828125 C 328.941406 404.964844 328.402344 402.785156 326.808594 401.507812 Z M 279 495 L 207 495 C 202.03125 495 198 490.976562 198 486 C 198 481.023438 202.03125 477 207 477 L 279 477 C 283.976562 477 288 481.023438 288 486 C 288 490.976562 283.976562 495 279 495 Z M 135 369 C 130.03125 369 126 364.96875 126 360 C 126 355.039062 130.003906 351.019531 134.964844 351 C 136.367188 350.980469 167.085938 350.226562 190.808594 318.601562 C 193.789062 314.640625 199.421875 313.8125 203.410156 316.800781 C 207.386719 319.777344 208.1875 325.421875 205.210938 329.398438 C 175.84375 368.550781 136.65625 369 135 369 Z M 351 369 C 349.34375 369 310.167969 368.550781 280.800781 329.398438 C 277.8125 325.421875 278.621094 319.777344 282.601562 316.800781 C 286.570312 313.804688 292.203125 314.621094 295.191406 318.601562 C 318.960938 350.289062 349.738281 350.992188 351.046875 351 C 355.996094 351.054688 359.992188 355.105469 359.964844 360.046875 C 359.945312 365.003906 355.949219 369 351 369 Z M 351 369 " fill-opacity="1" fill-rule="nonzero"/><g clip-path="url(#02c33659eb)"><path fill="#e75a70" d="M 1357.027344 342.25 C 1357.027344 287.238281 1312.425781 242.648438 1257.410156 242.648438 C 1224.011719 242.648438 1194.542969 259.128906 1176.460938 284.324219 C 1158.378906 259.128906 1128.910156 242.648438 1095.519531 242.648438 C 1040.496094 242.648438 995.894531 287.230469 995.894531 342.25 C 995.894531 350.042969 996.882812 357.589844 998.578125 364.867188 C 1012.410156 450.792969 1107.96875 541.445312 1176.460938 566.332031 C 1244.941406 541.445312 1340.511719 450.792969 1354.324219 364.878906 C 1356.039062 357.601562 1357.027344 350.050781 1357.027344 342.25 Z M 1357.027344 342.25 " fill-opacity="1" fill-rule="nonzero"/></g><path fill="#fdcb58" d="M 1341.5 463.984375 L 1302.894531 449.695312 L 1288.597656 411.097656 C 1287.132812 407.121094 1283.347656 404.496094 1279.128906 404.496094 C 1274.90625 404.496094 1271.121094 407.121094 1269.65625 411.085938 L 1255.363281 449.683594 L 1216.753906 463.976562 C 1212.785156 465.429688 1210.160156 469.214844 1210.160156 473.445312 C 1210.160156 477.664062 1212.796875 481.449219 1216.753906 482.910156 L 1255.363281 497.203125 L 1269.65625 535.800781 C 1271.121094 539.769531 1274.90625 542.390625 1279.128906 542.390625 C 1283.347656 542.390625 1287.132812 539.757812 1288.597656 535.800781 L 1302.894531 497.203125 L 1341.5 482.910156 C 1345.457031 481.449219 1348.09375 477.664062 1348.09375 473.445312 C 1348.09375 469.226562 1345.457031 465.441406 1341.5 463.984375 Z M 1109.292969 302.480469 L 1085.414062 293.648438 L 1076.582031 269.777344 C 1075.105469 265.8125 1071.332031 263.1875 1067.109375 263.1875 C 1062.878906 263.1875 1059.105469 265.8125 1057.640625 269.777344 L 1048.796875 293.648438 L 1024.929688 302.480469 C 1020.960938 303.953125 1018.335938 307.730469 1018.335938 311.949219 C 1018.335938 316.167969 1020.960938 319.941406 1024.929688 321.417969 L 1048.804688 330.246094 L 1057.640625 354.117188 C 1059.113281 358.085938 1062.890625 360.710938 1067.109375 360.710938 C 1071.332031 360.710938 1075.105469 358.085938 1076.582031 354.117188 L 1085.414062 330.246094 L 1109.292969 321.417969 C 1113.257812 319.941406 1115.882812 316.175781 1115.882812 311.949219 C 1115.882812 307.730469 1113.257812 303.953125 1109.292969 302.480469 Z M 1109.292969 302.480469 " fill-opacity="1" fill-rule="nonzero"/></svg>