<svg xmlns="http://www.w3.org/2000/svg" xmlns:xlink="http://www.w3.org/1999/xlink" width="1920" zoomAndPan="magnify" viewBox="0 0 1440 809.999993" height="1080" preserveAspectRatio="xMidYMid meet" version="1.0"><path fill="#ffcc4d" d="M 1044 405 C 1044 583.9375 898.9375 729 720 729 C 541.078125 729 396 583.9375 396 405 C 396 226.078125 541.078125 81 720 81 C 898.9375 81 1044 226.078125 1044 405 " fill-opacity="1" fill-rule="nonzero"/><path fill="#664500" d="M 504 315 C 494.0625 315 486 306.9375 486 297 C 486 287.082031 494.011719 279.035156 503.929688 279 C 506.734375 278.964844 568.171875 277.453125 615.617188 214.199219 C 621.574219 206.28125 632.84375 204.625 640.816406 210.601562 C 648.773438 216.558594 650.375 227.84375 644.417969 235.800781 C 585.683594 314.101562 507.3125 315 504 315 Z M 936 315 C 932.6875 315 854.332031 314.101562 795.601562 235.800781 C 789.625 227.84375 791.242188 216.558594 799.199219 210.601562 C 807.136719 204.605469 818.40625 206.242188 824.382812 214.199219 C 871.921875 277.578125 933.480469 278.980469 936.089844 279 C 945.988281 279.109375 953.980469 287.207031 953.929688 297.089844 C 953.890625 307.007812 945.898438 315 936 315 Z M 946.800781 444.601562 C 944.746094 443.050781 912.042969 418.933594 863.171875 402.40625 C 863.640625 400.339844 864 398.214844 864 396 C 864 389.359375 861.496094 383.347656 857.539062 378.648438 C 889.972656 369.289062 917.550781 369 918.035156 369 C 927.953125 368.964844 936 360.898438 935.980469 350.964844 C 935.964844 341.046875 927.9375 333 918 333 C 914.023438 333 819.882812 333.683594 761.273438 392.273438 C 756.125 397.421875 754.578125 405.160156 757.367188 411.894531 C 760.140625 418.625 766.726562 423 774 423 C 856.621094 423 924.535156 472.894531 925.21875 473.417969 C 928.457031 475.828125 932.238281 476.980469 935.980469 476.980469 C 941.472656 476.980469 946.871094 474.480469 950.417969 469.78125 C 956.359375 461.808594 954.738281 450.558594 946.800781 444.601562 Z M 678.726562 392.273438 C 620.136719 333.683594 525.976562 333 522 333 C 512.0625 333 504.019531 341.046875 504.019531 350.964844 C 504 360.898438 512.046875 368.964844 521.980469 369 C 522.449219 369 550.027344 369.289062 582.480469 378.648438 C 578.503906 383.347656 576 389.359375 576 396 C 576 398.214844 576.34375 400.339844 576.847656 402.40625 C 527.957031 418.933594 495.253906 443.050781 493.199219 444.601562 C 485.242188 450.558594 483.640625 461.84375 489.601562 469.78125 C 493.128906 474.515625 498.546875 477 504.019531 477 C 507.761719 477 511.558594 475.828125 514.800781 473.398438 C 515.464844 472.894531 582.964844 423 666 423 C 673.273438 423 679.84375 418.625 682.632812 411.894531 C 685.421875 405.160156 683.875 397.421875 678.726562 392.273438 Z M 720 621 C 714.527344 621 709.363281 618.515625 705.941406 614.25 L 648.449219 542.394531 L 608.398438 595.800781 C 605.269531 599.976562 600.480469 602.585938 595.277344 602.945312 C 590.058594 603.324219 584.945312 601.414062 581.273438 597.726562 L 563.273438 579.726562 C 556.234375 572.6875 556.234375 561.3125 563.273438 554.273438 C 570.3125 547.234375 581.6875 547.234375 588.726562 554.273438 L 592.054688 557.605469 L 633.601562 502.199219 C 636.949219 497.734375 642.148438 495.070312 647.710938 495 C 653.023438 494.820312 658.566406 497.394531 662.039062 501.75 L 720 574.183594 L 777.941406 501.75 C 781.414062 497.410156 786.652344 495 792.289062 495 C 797.867188 495.089844 803.070312 497.734375 806.398438 502.199219 L 847.960938 557.585938 L 851.292969 554.257812 C 858.328125 547.21875 869.707031 547.21875 876.742188 554.257812 C 883.78125 561.292969 883.78125 572.671875 876.742188 579.707031 L 858.742188 597.707031 C 855.054688 601.398438 850.121094 603.359375 844.738281 602.929688 C 839.539062 602.550781 834.75 599.957031 831.617188 595.78125 L 791.550781 542.375 L 734.074219 614.230469 C 730.636719 618.515625 725.472656 621 720 621 Z M 720 621 " fill-opacity="1" fill-rule="nonzero"/></svg>