<svg xmlns="http://www.w3.org/2000/svg" xmlns:xlink="http://www.w3.org/1999/xlink" width="1920" zoomAndPan="magnify" viewBox="0 0 1440 809.999993" height="1080" preserveAspectRatio="xMidYMid meet" version="1.0"><path fill="#ffcc4d" d="M 1044 405 C 1044 583.9375 898.9375 729 720 729 C 541.0625 729 396 583.9375 396 405 C 396 226.0625 541.0625 81 720 81 C 898.9375 81 1044 226.0625 1044 405 " fill-opacity="1" fill-rule="nonzero"/><path fill="#664500" d="M 756.019531 315 C 755.027344 315 754.054688 314.929688 753.046875 314.746094 C 743.238281 313.109375 736.613281 303.839844 738.25 294.03125 C 745.324219 251.476562 784.511719 171 882 171 C 891.953125 171 900 179.0625 900 189 C 900 198.9375 891.953125 207 882 207 C 790.289062 207 774.378906 296.171875 773.746094 299.96875 C 772.289062 308.753906 764.65625 315 756.019531 315 Z M 683.980469 315 C 675.359375 315 667.746094 308.789062 666.253906 300.007812 C 665.585938 296.226562 649.0625 207 558 207 C 548.0625 207 540 198.9375 540 189 C 540 179.0625 548.0625 171 558 171 C 655.488281 171 694.65625 251.476562 701.746094 294.03125 C 703.386719 303.839844 696.761719 313.109375 686.953125 314.746094 C 685.960938 314.929688 684.953125 315 683.980469 315 Z M 601.378906 403.054688 C 559.351562 403.054688 531.71875 385.109375 530.027344 383.976562 C 521.765625 378.46875 519.535156 367.289062 525.042969 359.011719 C 530.550781 350.730469 541.710938 348.480469 550.007812 354.023438 C 551.789062 355.175781 596.84375 383.472656 657.972656 352.90625 C 666.882812 348.460938 677.683594 352.078125 682.128906 360.953125 C 686.574219 369.847656 682.972656 380.664062 674.082031 385.109375 C 647.171875 398.539062 622.457031 403.054688 601.378906 403.054688 Z M 838.636719 403.054688 C 817.542969 403.054688 792.828125 398.539062 765.953125 385.09375 C 757.0625 380.644531 753.460938 369.828125 757.90625 360.9375 C 762.371094 352.042969 773.171875 348.445312 782.0625 352.890625 C 843.265625 383.488281 888.246094 355.15625 890.136719 353.953125 C 898.414062 348.589844 909.59375 350.890625 915.011719 359.152344 C 920.449219 367.414062 918.234375 378.484375 910.007812 383.976562 C 908.28125 385.109375 880.648438 403.054688 838.636719 403.054688 Z M 864.019531 567 C 858.527344 567 853.144531 564.515625 849.601562 559.800781 C 849.148438 559.1875 799.523438 495 720 495 C 640.492188 495 590.867188 559.1875 590.363281 559.855469 C 584.371094 567.738281 573.066406 569.304688 565.164062 563.347656 C 557.242188 557.371094 555.640625 546.136719 561.601562 538.199219 C 564.03125 534.960938 622.117188 459 720 459 C 817.882812 459 875.96875 534.976562 878.398438 538.199219 C 884.375 546.136719 882.757812 557.425781 874.800781 563.382812 C 871.558594 565.828125 867.78125 567 864.019531 567 Z M 864.019531 567 " fill-opacity="1" fill-rule="nonzero"/><path fill="#f5f8fa" d="M 673.039062 442.441406 C 664.882812 438.929688 655.414062 441.953125 650.734375 449.460938 L 560.734375 593.460938 C 557.28125 599.023438 557.082031 606.007812 560.269531 611.730469 C 563.4375 617.453125 569.449219 621 576 621 L 630 621 C 638.261719 621 645.460938 615.382812 647.460938 607.355469 L 683.460938 463.355469 C 685.601562 454.789062 681.191406 445.894531 673.039062 442.441406 Z M 879.265625 593.460938 L 789.265625 449.460938 C 784.546875 441.9375 775.097656 438.949219 766.980469 442.441406 C 758.824219 445.894531 754.398438 454.789062 756.558594 463.355469 L 792.558594 607.355469 C 794.554688 615.382812 801.738281 621 810 621 L 864 621 C 870.535156 621 876.5625 617.453125 879.75 611.710938 C 882.917969 606.007812 882.738281 599.003906 879.265625 593.460938 Z M 879.265625 593.460938 " fill-opacity="1" fill-rule="nonzero"/><path fill="#e1e8ed" d="M 971.675781 624.203125 C 971.730469 623.125 972 622.097656 972 621 C 972 591.191406 947.808594 567 918 567 C 899.515625 567 883.222656 576.324219 873.484375 590.488281 C 865.027344 586.980469 855.738281 585 846 585 C 806.238281 585 774 617.238281 774 657 C 774 696.761719 806.238281 729 846 729 C 870.570312 729 892.222656 716.632812 905.21875 697.84375 C 913.859375 716.203125 932.363281 729 954 729 C 983.824219 729 1008 704.824219 1008 675 C 1008 651.382812 992.773438 631.546875 971.675781 624.203125 Z M 594 585 C 584.242188 585 574.992188 586.980469 566.515625 590.488281 C 556.777344 576.324219 540.484375 567 522 567 C 492.191406 567 468 591.191406 468 621 C 468 622.097656 468.253906 623.125 468.324219 624.203125 C 447.226562 631.546875 432 651.382812 432 675 C 432 704.824219 456.175781 729 486 729 C 507.636719 729 526.15625 716.203125 534.761719 697.84375 C 547.777344 716.632812 569.410156 729 594 729 C 633.761719 729 666 696.761719 666 657 C 666 617.238281 633.761719 585 594 585 Z M 594 585 " fill-opacity="1" fill-rule="nonzero"/></svg>