<svg xmlns="http://www.w3.org/2000/svg" xmlns:xlink="http://www.w3.org/1999/xlink" width="1920" zoomAndPan="magnify" viewBox="0 0 1440 809.999993" height="1080" preserveAspectRatio="xMidYMid meet" version="1.0"><defs><clipPath id="2970e776b8"><path d="M 408.960938 93 L 1030.710938 93 L 1030.710938 717 L 408.960938 717 Z M 408.960938 93 " clip-rule="nonzero"/></clipPath></defs><g clip-path="url(#2970e776b8)"><path fill="#000000" d="M 719.835938 93.960938 C 548.144531 93.960938 408.960938 233.21875 408.960938 405 C 408.960938 576.78125 548.144531 716.039062 719.835938 716.039062 C 891.527344 716.039062 1030.710938 576.78125 1030.710938 405 C 1030.710938 233.21875 891.527344 93.960938 719.835938 93.960938 Z M 460.773438 405 C 460.773438 261.847656 576.757812 145.800781 719.835938 145.800781 C 862.914062 145.800781 978.898438 261.847656 978.898438 405 C 978.898438 521.648438 901.878906 620.300781 795.949219 652.832031 C 798.84375 600.445312 797.851562 567.992188 792.972656 555.480469 C 787.820312 542.273438 783.625 536.859375 781.105469 533.613281 C 779.457031 531.488281 778.527344 530.292969 778.527344 528.445312 C 778.527344 525.332031 780.71875 523.078125 785.09375 521.679688 C 823.265625 513.238281 848.859375 489.769531 861.882812 451.269531 C 879.925781 397.925781 854.171875 359.136719 843.753906 343.441406 C 842.890625 342.148438 842.136719 341.007812 841.515625 340.03125 C 833.414062 327.234375 844.03125 296.089844 856.707031 271.164062 C 813.601562 262.519531 797.140625 282.558594 787.695312 294.046875 C 783.839844 298.742188 781.15625 302.007812 778.304688 301.316406 C 775.757812 300.695312 773.019531 299.488281 769.730469 298.042969 C 760.320312 293.90625 746.4375 287.800781 719.835938 287.800781 C 686.847656 287.800781 664.988281 299.328125 661.644531 301.089844 C 661.351562 301.246094 661.199219 301.316406 661.199219 301.316406 C 643.855469 277.132812 619.230469 267.085938 587.320312 271.164062 C 596.109375 306.304688 596.769531 329.261719 589.300781 340.03125 C 578.101562 356.1875 557.101562 393.769531 573.402344 451.269531 C 589.703125 508.769531 649.050781 521.679688 660.347656 521.679688 L 660.421875 521.695312 C 661.320312 521.890625 669.632812 523.6875 667.136719 530.714844 C 666.644531 532.582031 666.320312 535.128906 665.953125 537.996094 C 664.773438 547.199219 663.175781 559.710938 654.351562 563.777344 C 642.78125 569.113281 617.25 572.023438 606.574219 565.367188 C 603.015625 563.148438 600.460938 558.507812 597.382812 552.917969 C 591.222656 541.734375 582.96875 526.746094 560.394531 519.773438 C 526.546875 509.316406 528.667969 523.144531 537.117188 526.535156 C 538.976562 527.28125 541.441406 527.980469 544.257812 528.78125 C 554.222656 531.601562 568.5625 535.667969 575.910156 547.5 C 578.066406 550.96875 580.28125 554.769531 582.546875 558.648438 C 590.191406 571.753906 598.386719 585.800781 606.574219 591.183594 C 613.648438 595.839844 630.605469 597.703125 657.441406 596.777344 C 656.273438 622.125 655.648438 641.917969 655.570312 656.160156 C 543.582031 627.5625 460.773438 525.957031 460.773438 405 Z M 460.773438 405 " fill-opacity="0.85" fill-rule="evenodd"/></g></svg>