<svg xmlns="http://www.w3.org/2000/svg" xmlns:xlink="http://www.w3.org/1999/xlink" width="1920" zoomAndPan="magnify" viewBox="0 0 1440 809.999993" height="1080" preserveAspectRatio="xMidYMid meet" version="1.0"><path fill="#ffcc4d" d="M 1044 405 C 1044 583.9375 898.9375 729 720 729 C 541.0625 729 396 583.9375 396 405 C 396 226.0625 541.0625 81 720 81 C 898.9375 81 1044 226.0625 1044 405 " fill-opacity="1" fill-rule="nonzero"/><path fill="#664500" d="M 720 459 C 654.785156 459 611.515625 451.402344 558 441 C 545.777344 438.640625 522 441 522 477 C 522 549 604.710938 639 720 639 C 835.273438 639 918 549 918 477 C 918 441 894.222656 438.625 882 441 C 828.484375 451.402344 785.214844 459 720 459 Z M 720 459 " fill-opacity="1" fill-rule="nonzero"/><path fill="#ffffff" d="M 558 477 C 558 477 612 495 720 495 C 828 495 882 477 882 477 C 882 477 846 549 720 549 C 594 549 558 477 558 477 Z M 558 477 " fill-opacity="1" fill-rule="nonzero"/><path fill="#e95f28" d="M 678.277344 160.433594 L 596.519531 174.851562 L 554.398438 98.296875 C 549.757812 89.855469 540.214844 85.339844 530.785156 86.992188 C 521.296875 88.667969 513.917969 96.191406 512.441406 105.695312 L 499.03125 192.042969 L 417.277344 206.460938 C 407.644531 208.152344 400.210938 215.910156 398.898438 225.613281 C 397.585938 235.3125 402.695312 244.746094 411.550781 248.957031 L 484.8125 283.734375 L 471.347656 370.351562 C 469.855469 379.996094 474.75 389.503906 483.460938 393.910156 C 486.683594 395.53125 490.140625 396.304688 493.578125 396.304688 C 499.464844 396.304688 505.277344 394.003906 509.617188 389.609375 L 572.832031 325.511719 L 654.15625 364.121094 C 662.976562 368.296875 673.488281 366.335938 680.183594 359.226562 C 686.878906 352.117188 688.210938 341.515625 683.515625 332.964844 L 641.25 256.140625 L 698.21875 198.394531 C 705.097656 191.429688 706.660156 180.808594 702.125 172.132812 C 697.554688 163.457031 687.851562 158.761719 678.277344 160.433594 Z M 761.722656 160.433594 L 843.480469 174.851562 L 885.601562 98.296875 C 890.242188 89.855469 899.785156 85.339844 909.214844 86.992188 C 918.683594 88.667969 926.0625 96.191406 927.539062 105.695312 L 940.949219 192.042969 L 1022.707031 206.460938 C 1032.355469 208.152344 1039.789062 215.890625 1041.082031 225.59375 C 1042.378906 235.296875 1037.285156 244.726562 1028.429688 248.941406 L 955.171875 283.714844 L 968.632812 370.332031 C 970.128906 379.980469 965.230469 389.484375 956.519531 393.894531 C 953.296875 395.515625 949.84375 396.289062 946.402344 396.289062 C 940.519531 396.289062 934.703125 393.984375 930.367188 389.59375 L 867.148438 325.492188 L 785.824219 364.105469 C 777.007812 368.28125 766.492188 366.316406 759.796875 359.207031 C 753.101562 352.097656 751.769531 341.496094 756.46875 332.945312 L 798.730469 256.140625 L 741.761719 198.394531 C 734.886719 191.429688 733.320312 180.808594 737.855469 172.132812 C 742.445312 163.457031 752.148438 158.761719 761.722656 160.433594 Z M 761.722656 160.433594 " fill-opacity="1" fill-rule="nonzero"/></svg>