<svg xmlns="http://www.w3.org/2000/svg" xmlns:xlink="http://www.w3.org/1999/xlink" width="1920" zoomAndPan="magnify" viewBox="0 0 1440 809.999993" height="1080" preserveAspectRatio="xMidYMid meet" version="1.0"><path fill="#ffcb4c" d="M 1009.414062 343.027344 C 1043.671875 502.890625 941.847656 660.269531 781.988281 694.527344 C 622.125 728.785156 464.746094 626.964844 430.488281 467.101562 C 396.230469 307.242188 498.066406 149.863281 657.914062 115.605469 C 817.777344 81.328125 975.152344 183.167969 1009.414062 343.027344 " fill-opacity="1" fill-rule="nonzero"/><path fill="#f4f7f9" d="M 905.585938 257.175781 C 918.394531 316.976562 880.304688 375.855469 820.503906 388.667969 C 760.707031 401.480469 701.828125 363.390625 688.996094 303.589844 C 676.1875 243.789062 714.277344 184.910156 774.078125 172.097656 C 833.875 159.285156 892.773438 197.359375 905.585938 257.175781 Z M 905.585938 257.175781 " fill-opacity="1" fill-rule="nonzero"/><path fill="#292f33" d="M 824.320312 261.765625 C 824.320312 262.863281 824.265625 263.957031 824.160156 265.050781 C 824.050781 266.140625 823.890625 267.226562 823.675781 268.300781 C 823.464844 269.378906 823.195312 270.441406 822.878906 271.492188 C 822.558594 272.539062 822.191406 273.574219 821.769531 274.585938 C 821.351562 275.601562 820.882812 276.589844 820.367188 277.558594 C 819.847656 278.527344 819.285156 279.464844 818.675781 280.378906 C 818.066406 281.289062 817.414062 282.171875 816.714844 283.019531 C 816.019531 283.867188 815.285156 284.679688 814.507812 285.457031 C 813.734375 286.230469 812.921875 286.96875 812.074219 287.664062 C 811.226562 288.359375 810.34375 289.011719 809.433594 289.621094 C 808.519531 290.230469 807.578125 290.792969 806.613281 291.3125 C 805.644531 291.828125 804.652344 292.296875 803.640625 292.71875 C 802.625 293.136719 801.59375 293.507812 800.542969 293.824219 C 799.496094 294.144531 798.429688 294.410156 797.355469 294.625 C 796.277344 294.839844 795.195312 295 794.101562 295.105469 C 793.011719 295.214844 791.917969 295.269531 790.820312 295.269531 C 789.722656 295.269531 788.628906 295.214844 787.535156 295.105469 C 786.445312 295 785.359375 294.839844 784.285156 294.625 C 783.207031 294.410156 782.144531 294.144531 781.09375 293.824219 C 780.042969 293.507812 779.011719 293.136719 778 292.71875 C 776.984375 292.296875 775.996094 291.828125 775.027344 291.3125 C 774.058594 290.792969 773.117188 290.230469 772.207031 289.621094 C 771.292969 289.011719 770.414062 288.359375 769.566406 287.664062 C 768.71875 286.96875 767.90625 286.230469 767.128906 285.457031 C 766.355469 284.679688 765.617188 283.867188 764.921875 283.019531 C 764.226562 282.171875 763.574219 281.289062 762.964844 280.378906 C 762.355469 279.464844 761.789062 278.527344 761.273438 277.558594 C 760.757812 276.589844 760.289062 275.601562 759.867188 274.585938 C 759.449219 273.574219 759.078125 272.539062 758.761719 271.492188 C 758.441406 270.441406 758.175781 269.378906 757.960938 268.300781 C 757.746094 267.226562 757.585938 266.140625 757.480469 265.050781 C 757.371094 263.957031 757.316406 262.863281 757.316406 261.765625 C 757.316406 260.667969 757.371094 259.574219 757.480469 258.480469 C 757.585938 257.390625 757.746094 256.304688 757.960938 255.230469 C 758.175781 254.152344 758.441406 253.089844 758.761719 252.039062 C 759.078125 250.992188 759.449219 249.957031 759.867188 248.945312 C 760.289062 247.929688 760.757812 246.941406 761.273438 245.972656 C 761.789062 245.003906 762.355469 244.066406 762.964844 243.152344 C 763.574219 242.242188 764.226562 241.359375 764.921875 240.511719 C 765.617188 239.664062 766.355469 238.851562 767.128906 238.078125 C 767.90625 237.300781 768.71875 236.5625 769.566406 235.867188 C 770.414062 235.171875 771.292969 234.519531 772.207031 233.910156 C 773.117188 233.300781 774.058594 232.738281 775.027344 232.21875 C 775.996094 231.703125 776.984375 231.234375 778 230.8125 C 779.011719 230.394531 780.042969 230.023438 781.09375 229.707031 C 782.144531 229.386719 783.207031 229.121094 784.285156 228.90625 C 785.359375 228.695312 786.445312 228.53125 787.535156 228.425781 C 788.628906 228.316406 789.722656 228.265625 790.820312 228.265625 C 791.917969 228.265625 793.011719 228.316406 794.101562 228.425781 C 795.195312 228.53125 796.277344 228.695312 797.355469 228.90625 C 798.429688 229.121094 799.496094 229.386719 800.542969 229.707031 C 801.59375 230.023438 802.625 230.394531 803.640625 230.8125 C 804.652344 231.234375 805.644531 231.703125 806.613281 232.21875 C 807.578125 232.738281 808.519531 233.300781 809.433594 233.910156 C 810.34375 234.519531 811.226562 235.171875 812.074219 235.867188 C 812.921875 236.5625 813.734375 237.300781 814.507812 238.078125 C 815.285156 238.851562 816.019531 239.664062 816.714844 240.511719 C 817.414062 241.359375 818.066406 242.242188 818.675781 243.152344 C 819.285156 244.066406 819.847656 245.003906 820.367188 245.972656 C 820.882812 246.941406 821.351562 247.929688 821.769531 248.945312 C 822.191406 249.957031 822.558594 250.992188 822.878906 252.039062 C 823.195312 253.089844 823.464844 254.152344 823.675781 255.230469 C 823.890625 256.304688 824.050781 257.390625 824.160156 258.480469 C 824.269531 259.574219 824.320312 260.667969 824.320312 261.765625 Z M 824.320312 261.765625 " fill-opacity="1" fill-rule="nonzero"/><path fill="#f4f7f9" d="M 655.660156 343.851562 C 663.160156 378.816406 640.875 413.238281 605.910156 420.738281 C 570.945312 428.238281 536.519531 405.953125 529.019531 370.988281 C 521.519531 336.023438 543.804688 301.601562 578.773438 294.101562 C 613.738281 286.601562 648.160156 308.886719 655.660156 343.851562 Z M 655.660156 343.851562 " fill-opacity="1" fill-rule="nonzero"/><path fill="#292f33" d="M 623.585938 363.054688 C 623.804688 364.078125 623.972656 365.109375 624.089844 366.148438 C 624.207031 367.1875 624.273438 368.230469 624.289062 369.273438 C 624.304688 370.320312 624.269531 371.367188 624.183594 372.40625 C 624.09375 373.449219 623.957031 374.484375 623.769531 375.515625 C 623.578125 376.542969 623.339844 377.5625 623.050781 378.566406 C 622.761719 379.570312 622.425781 380.558594 622.039062 381.53125 C 621.652344 382.503906 621.21875 383.457031 620.742188 384.386719 C 620.261719 385.316406 619.738281 386.21875 619.167969 387.097656 C 618.601562 387.976562 617.992188 388.824219 617.339844 389.640625 C 616.6875 390.460938 615.996094 391.246094 615.269531 391.996094 C 614.539062 392.746094 613.777344 393.457031 612.976562 394.132812 C 612.179688 394.808594 611.347656 395.445312 610.488281 396.039062 C 609.625 396.632812 608.738281 397.183594 607.824219 397.6875 C 606.910156 398.195312 605.96875 398.65625 605.011719 399.070312 C 604.050781 399.484375 603.070312 399.851562 602.074219 400.171875 C 601.078125 400.488281 600.070312 400.757812 599.046875 400.976562 C 598.023438 401.195312 596.992188 401.363281 595.953125 401.484375 C 594.914062 401.601562 593.871094 401.667969 592.824219 401.683594 C 591.777344 401.699219 590.734375 401.660156 589.691406 401.574219 C 588.648438 401.488281 587.613281 401.347656 586.585938 401.160156 C 585.554688 400.972656 584.539062 400.734375 583.535156 400.445312 C 582.527344 400.15625 581.539062 399.816406 580.566406 399.429688 C 579.59375 399.046875 578.644531 398.613281 577.714844 398.132812 C 576.785156 397.652344 575.882812 397.128906 575.003906 396.5625 C 574.125 395.992188 573.277344 395.382812 572.457031 394.730469 C 571.640625 394.082031 570.855469 393.390625 570.105469 392.660156 C 569.355469 391.933594 568.640625 391.167969 567.964844 390.371094 C 567.289062 389.570312 566.65625 388.742188 566.0625 387.878906 C 565.46875 387.019531 564.917969 386.132812 564.410156 385.214844 C 563.902344 384.300781 563.445312 383.363281 563.027344 382.402344 C 562.613281 381.441406 562.246094 380.464844 561.929688 379.46875 C 561.609375 378.472656 561.34375 377.460938 561.125 376.4375 C 560.902344 375.414062 560.734375 374.386719 560.617188 373.34375 C 560.5 372.304688 560.433594 371.261719 560.417969 370.21875 C 560.402344 369.171875 560.4375 368.128906 560.523438 367.085938 C 560.613281 366.042969 560.75 365.007812 560.9375 363.976562 C 561.128906 362.949219 561.367188 361.933594 561.65625 360.925781 C 561.945312 359.921875 562.28125 358.933594 562.667969 357.960938 C 563.054688 356.988281 563.488281 356.035156 563.964844 355.105469 C 564.445312 354.175781 564.96875 353.273438 565.539062 352.394531 C 566.105469 351.515625 566.714844 350.667969 567.367188 349.851562 C 568.019531 349.03125 568.710938 348.246094 569.4375 347.496094 C 570.167969 346.746094 570.929688 346.035156 571.730469 345.359375 C 572.527344 344.683594 573.359375 344.046875 574.21875 343.453125 C 575.082031 342.859375 575.96875 342.308594 576.882812 341.804688 C 577.800781 341.296875 578.738281 340.835938 579.695312 340.421875 C 580.65625 340.007812 581.636719 339.640625 582.632812 339.320312 C 583.628906 339.003906 584.636719 338.734375 585.660156 338.515625 C 586.683594 338.296875 587.714844 338.128906 588.753906 338.011719 C 589.792969 337.890625 590.835938 337.824219 591.882812 337.808594 C 592.929688 337.792969 593.972656 337.832031 595.015625 337.917969 C 596.058594 338.003906 597.09375 338.144531 598.121094 338.332031 C 599.152344 338.519531 600.167969 338.761719 601.171875 339.046875 C 602.179688 339.335938 603.167969 339.675781 604.140625 340.0625 C 605.113281 340.445312 606.0625 340.878906 606.992188 341.359375 C 607.921875 341.839844 608.828125 342.363281 609.703125 342.929688 C 610.582031 343.5 611.429688 344.109375 612.25 344.761719 C 613.066406 345.414062 613.851562 346.101562 614.601562 346.832031 C 615.351562 347.558594 616.066406 348.324219 616.742188 349.121094 C 617.417969 349.921875 618.050781 350.75 618.644531 351.613281 C 619.238281 352.472656 619.789062 353.359375 620.296875 354.277344 C 620.804688 355.191406 621.265625 356.128906 621.679688 357.089844 C 622.09375 358.050781 622.460938 359.027344 622.777344 360.023438 C 623.097656 361.023438 623.363281 362.03125 623.585938 363.054688 Z M 623.585938 363.054688 " fill-opacity="1" fill-rule="nonzero"/><path fill="#65471b" d="M 730.277344 453.304688 C 672.007812 465.785156 631.910156 467.285156 582.09375 468.238281 C 570.730469 468.484375 549.941406 475.128906 556.832031 507.296875 C 570.613281 571.621094 661.746094 636.191406 764.75 614.121094 C 867.742188 592.046875 924.414062 495.800781 910.632812 431.480469 C 903.742188 399.308594 882.03125 401.742188 871.574219 406.21875 C 825.753906 425.738281 788.550781 440.820312 730.277344 453.304688 Z M 730.277344 453.304688 " fill-opacity="1" fill-rule="nonzero"/><path fill="#e8596e" d="M 604.875 503.746094 L 604.875 602.425781 C 604.875 651.765625 637.765625 701.105469 703.554688 701.105469 C 769.339844 701.105469 802.234375 651.765625 802.234375 602.425781 L 802.234375 503.746094 Z M 604.875 503.746094 " fill-opacity="1" fill-rule="nonzero"/><path fill="#dd2f45" d="M 703.554688 633.328125 C 708.503906 633.328125 712.515625 629.316406 712.515625 624.367188 L 712.515625 520.835938 L 694.574219 520.835938 L 694.574219 624.367188 C 694.589844 629.316406 698.601562 633.328125 703.554688 633.328125 Z M 703.554688 633.328125 " fill-opacity="1" fill-rule="nonzero"/><path fill="#ffffff" d="M 588.984375 500.40625 C 588.984375 500.40625 640.675781 506.148438 737.171875 485.472656 C 833.664062 464.800781 878.464844 438.371094 878.464844 438.371094 C 878.464844 438.371094 860.09375 509.585938 747.515625 533.710938 C 634.9375 557.839844 588.984375 500.40625 588.984375 500.40625 Z M 588.984375 500.40625 " fill-opacity="1" fill-rule="nonzero"/></svg>