<svg xmlns="http://www.w3.org/2000/svg" xmlns:xlink="http://www.w3.org/1999/xlink" width="1920" zoomAndPan="magnify" viewBox="0 0 1440 809.999993" height="1080" preserveAspectRatio="xMidYMid meet" version="1.0"><defs><clipPath id="3554c133df"><path d="M 379 81 L 1062 81 L 1062 729 L 379 729 Z M 379 81 " clip-rule="nonzero"/></clipPath></defs><g clip-path="url(#3554c133df)"><path fill="#e75a70" d="M 849.234375 437.6875 C 849.234375 366.082031 791.171875 308.066406 719.554688 308.066406 C 676.082031 308.066406 637.71875 329.507812 614.191406 362.289062 C 590.660156 329.507812 552.277344 308.066406 508.824219 308.066406 C 437.207031 308.066406 379.148438 366.082031 379.148438 437.6875 C 379.148438 447.804688 380.425781 457.679688 382.636719 467.132812 C 400.65625 578.949219 525.03125 696.960938 614.191406 729.34375 C 703.328125 696.960938 827.742188 578.949219 845.707031 467.167969 C 847.9375 457.679688 849.234375 447.804688 849.234375 437.6875 Z M 1061.164062 170.441406 C 1061.164062 120.851562 1020.953125 80.65625 971.339844 80.65625 C 941.230469 80.65625 914.652344 95.523438 898.351562 118.242188 C 882.046875 95.542969 855.46875 80.65625 825.378906 80.65625 C 775.765625 80.65625 735.554688 120.851562 735.554688 170.441406 C 735.554688 177.476562 736.449219 184.300781 737.976562 190.835938 C 750.445312 268.292969 836.609375 350.035156 898.351562 372.449219 C 960.089844 350.015625 1046.273438 268.292969 1058.742188 190.855469 C 1060.269531 184.300781 1061.164062 177.476562 1061.164062 170.441406 Z M 1061.164062 170.441406 " fill-opacity="1" fill-rule="nonzero"/></g></svg>