<svg xmlns="http://www.w3.org/2000/svg" xmlns:xlink="http://www.w3.org/1999/xlink" width="1920" zoomAndPan="magnify" viewBox="0 0 1440 809.999993" height="1080" preserveAspectRatio="xMidYMid meet" version="1.0"><defs><clipPath id="4a3c97cbfb"><path d="M 454.855469 81 L 985 81 L 985 729 L 454.855469 729 Z M 454.855469 81 " clip-rule="nonzero"/></clipPath></defs><g clip-path="url(#4a3c97cbfb)"><path fill="#d7ff64" d="M 669.472656 81.597656 C 663.515625 81.597656 658.6875 86.421875 658.6875 92.378906 L 658.6875 124.71875 C 658.6875 130.671875 653.859375 135.496094 647.902344 135.496094 L 617.703125 135.496094 C 611.75 135.496094 606.921875 140.324219 606.921875 146.277344 L 606.921875 232.519531 C 606.921875 238.472656 602.089844 243.296875 596.132812 243.296875 L 565.9375 243.296875 C 559.980469 243.296875 555.152344 248.125 555.152344 254.078125 L 555.152344 313.367188 C 555.152344 319.324219 550.324219 324.148438 544.367188 324.148438 L 514.171875 324.148438 C 508.214844 324.148438 503.386719 328.976562 503.386719 334.929688 L 503.386719 394.21875 C 503.386719 400.175781 498.558594 405 492.601562 405 L 465.640625 405 C 459.683594 405 454.855469 409.824219 454.855469 415.78125 L 454.855469 448.121094 C 454.855469 454.074219 459.683594 458.898438 465.640625 458.898438 L 605.839844 458.898438 C 611.796875 458.898438 616.625 463.726562 616.625 469.679688 L 616.625 528.972656 C 616.625 534.925781 611.796875 539.75 605.839844 539.75 L 575.644531 539.75 C 569.6875 539.75 564.859375 544.578125 564.859375 550.53125 L 564.859375 609.820312 C 564.859375 615.773438 560.03125 620.601562 554.074219 620.601562 L 523.878906 620.601562 C 517.921875 620.601562 513.09375 625.429688 513.09375 631.382812 L 513.09375 717.621094 C 513.09375 723.578125 517.921875 728.402344 523.878906 728.402344 L 610.15625 728.402344 C 616.113281 728.402344 620.941406 723.578125 620.941406 717.621094 L 620.941406 674.503906 L 664.078125 674.503906 C 670.035156 674.503906 674.863281 669.675781 674.863281 663.722656 L 674.863281 631.382812 C 674.863281 625.429688 679.691406 620.601562 685.648438 620.601562 L 715.84375 620.601562 C 721.800781 620.601562 726.628906 615.773438 726.628906 609.820312 L 726.628906 577.480469 C 726.628906 571.527344 731.457031 566.703125 737.414062 566.703125 L 767.613281 566.703125 C 773.570312 566.703125 778.398438 561.875 778.398438 555.921875 L 778.398438 523.582031 C 778.398438 517.628906 783.226562 512.800781 789.179688 512.800781 L 819.378906 512.800781 C 825.335938 512.800781 830.164062 507.972656 830.164062 502.019531 L 830.164062 469.679688 C 830.164062 463.726562 834.992188 458.898438 840.949219 458.898438 L 871.144531 458.898438 C 877.101562 458.898438 881.929688 454.074219 881.929688 448.121094 L 881.929688 415.78125 C 881.929688 409.824219 886.757812 405 892.714844 405 L 922.914062 405 C 928.867188 405 933.695312 400.175781 933.695312 394.21875 L 933.695312 307.980469 C 933.695312 302.027344 928.867188 297.199219 922.914062 297.199219 L 891.636719 297.199219 C 885.679688 297.199219 880.851562 292.371094 880.851562 286.417969 L 880.851562 254.078125 C 880.851562 248.125 885.679688 243.296875 891.636719 243.296875 L 921.835938 243.296875 C 927.789062 243.296875 932.617188 238.472656 932.617188 232.519531 L 932.617188 200.179688 C 932.617188 194.226562 937.445312 189.398438 943.402344 189.398438 L 973.601562 189.398438 C 979.554688 189.398438 984.386719 184.570312 984.386719 178.617188 L 984.386719 92.378906 C 984.386719 86.421875 979.554688 81.597656 973.601562 81.597656 Z M 629.566406 539.75 C 623.609375 539.75 618.78125 544.578125 618.78125 550.53125 L 618.78125 609.820312 C 618.78125 615.773438 613.953125 620.601562 608 620.601562 L 577.800781 620.601562 C 571.84375 620.601562 567.015625 625.429688 567.015625 631.382812 L 567.015625 663.722656 C 567.015625 669.675781 571.84375 674.503906 577.800781 674.503906 L 620.941406 674.503906 L 620.941406 631.382812 C 620.941406 625.429688 625.769531 620.601562 631.722656 620.601562 L 661.921875 620.601562 C 667.878906 620.601562 672.707031 615.773438 672.707031 609.820312 L 672.707031 577.480469 C 672.707031 571.527344 677.535156 566.703125 683.492188 566.703125 L 713.6875 566.703125 C 719.644531 566.703125 724.472656 561.875 724.472656 555.921875 L 724.472656 523.582031 C 724.472656 517.628906 729.300781 512.800781 735.257812 512.800781 L 765.457031 512.800781 C 771.410156 512.800781 776.238281 507.972656 776.238281 502.019531 L 776.238281 469.679688 C 776.238281 463.726562 781.066406 458.898438 787.023438 458.898438 L 817.222656 458.898438 C 823.179688 458.898438 828.007812 454.074219 828.007812 448.121094 L 828.007812 415.78125 C 828.007812 409.824219 832.835938 405 838.792969 405 L 868.988281 405 C 874.945312 405 879.773438 400.175781 879.773438 394.21875 L 879.773438 361.878906 C 879.773438 355.925781 874.945312 351.101562 868.988281 351.101562 L 785.945312 351.101562 C 779.988281 351.101562 775.160156 346.273438 775.160156 340.320312 L 775.160156 307.980469 C 775.160156 302.027344 779.988281 297.199219 785.945312 297.199219 L 816.144531 297.199219 C 822.097656 297.199219 826.929688 292.371094 826.929688 286.417969 L 826.929688 254.078125 C 826.929688 248.125 831.757812 243.296875 837.714844 243.296875 L 867.910156 243.296875 C 873.867188 243.296875 878.695312 238.472656 878.695312 232.519531 L 878.695312 200.179688 C 878.695312 194.226562 883.523438 189.398438 889.480469 189.398438 L 919.675781 189.398438 C 925.632812 189.398438 930.460938 184.570312 930.460938 178.617188 L 930.460938 146.277344 C 930.460938 140.324219 925.632812 135.496094 919.675781 135.496094 L 671.628906 135.496094 C 665.671875 135.496094 660.84375 140.324219 660.84375 146.277344 L 660.84375 232.519531 C 660.84375 238.472656 656.015625 243.296875 650.058594 243.296875 L 619.863281 243.296875 C 613.90625 243.296875 609.078125 248.125 609.078125 254.078125 L 609.078125 313.367188 C 609.078125 319.324219 604.246094 324.148438 598.292969 324.148438 L 568.09375 324.148438 C 562.136719 324.148438 557.308594 328.976562 557.308594 334.929688 L 557.308594 394.21875 C 557.308594 400.175781 562.136719 405 568.09375 405 L 659.765625 405 C 665.722656 405 670.550781 409.824219 670.550781 415.78125 L 670.550781 528.972656 C 670.550781 534.925781 665.722656 539.75 659.765625 539.75 Z M 629.566406 539.75 " fill-opacity="1" fill-rule="evenodd"/></g></svg>