<svg xmlns="http://www.w3.org/2000/svg" xmlns:xlink="http://www.w3.org/1999/xlink" width="1920" zoomAndPan="magnify" viewBox="0 0 1440 809.999993" height="1080" preserveAspectRatio="xMidYMid meet" version="1.0"><defs><clipPath id="50bcefd082"><path d="M 639 191.191406 L 927.128906 191.191406 L 927.128906 505 L 639 505 Z M 639 191.191406 " clip-rule="nonzero"/></clipPath><clipPath id="e4d24fbc84"><path d="M 699.238281 391 L 927.128906 391 L 927.128906 505 L 699.238281 505 Z M 699.238281 391 " clip-rule="nonzero"/></clipPath><clipPath id="dd9633cec1"><path d="M 462 153.324219 L 608 153.324219 L 608 240 L 462 240 Z M 462 153.324219 " clip-rule="nonzero"/></clipPath><clipPath id="83a53e10b5"><path d="M 492 153.324219 L 631 153.324219 L 631 240 L 492 240 Z M 492 153.324219 " clip-rule="nonzero"/></clipPath><clipPath id="cf6ed8c418"><path d="M 517.5 626.183594 L 530.136719 626.183594 L 530.136719 656.574219 L 517.5 656.574219 Z M 517.5 626.183594 " clip-rule="nonzero"/></clipPath><clipPath id="c40338b8d9"><path d="M 1047.960938 249 L 1359.210938 249 L 1359.210938 561 L 1047.960938 561 Z M 1047.960938 249 " clip-rule="nonzero"/></clipPath></defs><path fill="#efc8a8" d="M 743.527344 501.707031 L 741.675781 410.542969 C 773.96875 410.171875 816.03125 403.3125 852.300781 400.347656 C 852.257812 397.21875 852.636719 394.09375 853.433594 391.066406 C 854.152344 388.269531 855.269531 385.589844 856.746094 383.105469 C 862.214844 374.757812 876.851562 371.515625 882.285156 381.261719 L 909.421875 459.261719 L 894.382812 517.640625 C 893.765625 520.03125 892.753906 522.304688 891.390625 524.363281 C 891.390625 524.363281 886.589844 532.195312 882.019531 539.046875 L 760.546875 539.15625 L 760.546875 539.152344 C 750 529.507812 743.855469 515.980469 743.527344 501.707031 " fill-opacity="1" fill-rule="nonzero"/><path fill="#d4d0e3" d="M 891.316406 575.058594 C 891.363281 578.46875 887.769531 581.265625 883.289062 581.300781 L 867.515625 581.425781 L 756.996094 582.3125 C 752.507812 582.339844 748.832031 579.613281 748.785156 576.203125 L 748.34375 544.4375 C 748.300781 541.027344 751.894531 538.242188 756.382812 538.199219 L 867.515625 537.308594 L 882.679688 537.191406 C 887.160156 537.152344 890.828125 539.878906 890.878906 543.289062 L 891.316406 575.058594 " fill-opacity="1" fill-rule="nonzero"/><path fill="#b5b2c7" d="M 891.316406 575.058594 C 891.363281 578.46875 887.769531 581.265625 883.289062 581.300781 L 867.515625 581.425781 L 867.515625 537.308594 L 882.679688 537.191406 C 887.160156 537.152344 890.828125 539.878906 890.878906 543.289062 L 891.316406 575.058594 " fill-opacity="1" fill-rule="nonzero"/><path fill="#f79613" d="M 904.960938 655.480469 L 759.980469 655.480469 C 808.875 655.480469 851.699219 628.734375 875.359375 581.035156 L 903.867188 580.808594 L 904.960938 655.480469 " fill-opacity="1" fill-rule="nonzero"/><path fill="#fab317" d="M 875.355469 581.03125 C 851.695312 628.730469 808.871094 655.476562 759.972656 655.476562 L 737.5 655.476562 L 736.402344 582.144531 L 875.355469 581.03125 " fill-opacity="1" fill-rule="nonzero"/><g clip-path="url(#50bcefd082)"><path fill="#fab317" d="M 695.84375 431.960938 L 727.976562 504.992188 L 916.226562 422.320312 C 925.453125 418.269531 929.640625 407.515625 925.585938 398.296875 L 844.140625 213.183594 L 768.242188 246.511719 C 766.707031 247.171875 764.933594 246.464844 764.269531 244.933594 C 764.054688 244.433594 763.980469 243.886719 764.050781 243.351562 C 765.0625 235.410156 765.984375 220.351562 760.675781 210.769531 C 750.773438 193.066406 728.382812 186.734375 710.664062 196.625 C 692.945312 206.519531 686.605469 228.886719 696.507812 246.589844 C 701.242188 255.054688 709.136719 261.304688 718.464844 263.980469 C 719.675781 264.328125 720.371094 265.589844 720.015625 266.796875 C 719.832031 267.445312 719.363281 267.980469 718.746094 268.25 L 639.183594 303.1875 C 642.878906 311.578125 665.75 363.558594 674.054688 382.496094 C 674.5625 383.65625 675.921875 384.183594 677.082031 383.671875 C 677.699219 383.402344 678.167969 382.871094 678.359375 382.230469 C 683.953125 362.734375 704.304688 351.457031 723.8125 357.042969 C 743.332031 362.628906 754.617188 382.960938 749.023438 402.457031 C 746.351562 411.78125 740.09375 419.671875 731.617188 424.398438 C 722.007812 429.714844 706.941406 428.757812 698.976562 427.761719 C 697.328125 427.550781 695.820312 428.722656 695.609375 430.371094 C 695.542969 430.914062 695.621094 431.457031 695.84375 431.960938 " fill-opacity="1" fill-rule="nonzero"/></g><g clip-path="url(#e4d24fbc84)"><path fill="#f79613" d="M 699.820312 441.007812 L 727.972656 504.992188 L 916.222656 422.320312 C 925.449219 418.265625 929.640625 407.515625 925.585938 398.296875 L 922.398438 391.058594 C 914.308594 395.203125 906.042969 399.136719 897.589844 402.847656 C 835.382812 430.277344 767.777344 443.324219 699.820312 441.007812 " fill-opacity="1" fill-rule="nonzero"/></g><path fill="#efc8a8" d="M 833.609375 480.613281 C 835.582031 476.40625 837.9375 471.761719 840.691406 466.933594 C 848.507812 453.21875 862.238281 447.605469 862.238281 447.605469 C 862.238281 447.605469 856.3125 411.882812 854.4375 399.960938 C 853.125 391.601562 854.695312 383.042969 858.886719 375.6875 C 864.632812 366.78125 879.648438 363.074219 885.011719 373.253906 L 911.210938 455.035156 L 894.710938 516.929688 " fill-opacity="1" fill-rule="nonzero"/><path fill="#efc8a8" d="M 623.835938 318.753906 L 625.6875 409.914062 C 593.394531 410.285156 551.335938 417.144531 515.0625 420.109375 C 515.101562 423.238281 514.722656 426.359375 513.929688 429.390625 C 513.207031 432.1875 512.089844 434.867188 510.613281 437.351562 C 505.148438 445.699219 490.511719 448.941406 485.078125 439.195312 L 457.941406 361.191406 L 472.980469 302.8125 C 473.597656 300.425781 474.605469 298.152344 475.96875 296.089844 C 475.96875 296.089844 480.777344 288.261719 485.34375 281.410156 L 606.8125 281.296875 L 606.8125 281.300781 C 617.359375 290.945312 623.507812 304.476562 623.835938 318.753906 " fill-opacity="1" fill-rule="nonzero"/><path fill="#d4d0e3" d="M 619.015625 276.015625 L 618.574219 244.25 C 618.527344 240.84375 614.855469 238.109375 610.371094 238.140625 L 484.074219 239.15625 C 479.589844 239.191406 475.996094 241.984375 476.042969 245.390625 L 476.480469 277.160156 C 476.53125 280.570312 480.203125 283.304688 484.6875 283.265625 L 610.980469 282.257812 C 615.460938 282.21875 619.0625 279.425781 619.015625 276.015625 " fill-opacity="1" fill-rule="nonzero"/><path fill="#b5b2c7" d="M 499.847656 282.953125 L 482.089844 282.953125 C 478.738281 282.953125 476.019531 280.238281 476.019531 276.886719 L 476.019531 246.785156 C 476.019531 242.738281 479.300781 239.457031 483.351562 239.457031 L 499.847656 239.457031 L 499.847656 282.957031 L 499.847656 282.953125 " fill-opacity="1" fill-rule="nonzero"/><g clip-path="url(#dd9633cec1)"><path fill="#4bc3ca" d="M 462.402344 153.324219 L 607.386719 153.324219 C 558.492188 153.324219 515.664062 191.722656 492.007812 239.421875 L 463.5 239.648438 L 462.402344 153.324219 " fill-opacity="1" fill-rule="nonzero"/></g><g clip-path="url(#83a53e10b5)"><path fill="#54c7de" d="M 492.007812 239.421875 C 515.664062 191.722656 558.492188 153.324219 607.386719 153.324219 L 629.867188 153.324219 L 630.960938 238.304688 L 492.007812 239.421875 " fill-opacity="1" fill-rule="nonzero"/></g><path fill="#d41f31" d="M 748.101562 381.082031 C 753.234375 397.578125 746.203125 415.421875 731.195312 424 C 721.625 429.375 706.542969 428.546875 698.554688 427.585938 C 696.910156 427.386719 695.414062 428.558594 695.210938 430.203125 C 695.144531 430.75 695.230469 431.300781 695.453125 431.800781 L 724.230469 496.039062 C 727.164062 502.582031 724.238281 510.261719 717.691406 513.195312 C 717.691406 513.195312 717.6875 513.199219 717.6875 513.199219 C 698.921875 521.585938 664.917969 536.792969 650.40625 543.296875 C 649.253906 543.816406 647.898438 543.304688 647.378906 542.15625 C 647.097656 541.53125 647.109375 540.8125 647.414062 540.199219 C 656.371094 522 648.867188 499.988281 630.648438 491.035156 C 612.429688 482.089844 590.398438 489.585938 581.4375 507.785156 C 577.15625 516.492188 576.492188 526.542969 579.597656 535.734375 C 583.121094 546.125 594.941406 555.53125 601.519531 560.140625 C 602.882812 561.082031 603.222656 562.953125 602.277344 564.3125 C 601.964844 564.761719 601.539062 565.117188 601.039062 565.339844 L 525.355469 599.191406 L 441.351562 411.652344 C 437.230469 402.453125 441.355469 391.660156 450.558594 387.542969 L 628.085938 308.167969 C 633.601562 305.703125 640.074219 308.167969 642.542969 313.679688 C 642.542969 313.683594 642.546875 313.683594 642.546875 313.683594 C 650.769531 332.042969 666.675781 367.566406 673.335938 382.480469 C 673.855469 383.640625 675.207031 384.164062 676.367188 383.648438 C 676.988281 383.378906 677.460938 382.839844 677.644531 382.1875 C 683.097656 362.65625 703.363281 351.242188 722.910156 356.6875 C 734.902344 360.027344 744.386719 369.210938 748.105469 381.082031 L 748.101562 381.082031 " fill-opacity="1" fill-rule="nonzero"/><path fill="#c21c2e" d="M 731.191406 424.003906 C 721.625 429.382812 706.546875 428.550781 698.558594 427.585938 C 696.910156 427.390625 695.410156 428.566406 695.207031 430.214844 C 695.144531 430.757812 695.226562 431.308594 695.449219 431.808594 L 724.238281 496.042969 C 727.164062 502.589844 724.238281 510.265625 717.691406 513.207031 C 698.921875 521.585938 664.925781 536.804688 650.402344 543.304688 C 649.246094 543.820312 647.890625 543.304688 647.375 542.152344 C 647.097656 541.53125 647.109375 540.820312 647.410156 540.207031 C 656.367188 522.007812 648.871094 500 630.652344 491.042969 C 612.4375 482.089844 590.402344 489.582031 581.4375 507.785156 C 577.152344 516.492188 576.488281 526.542969 579.597656 535.742188 C 583.125 546.121094 594.941406 555.539062 601.523438 560.140625 C 602.886719 561.085938 603.226562 562.957031 602.28125 564.316406 C 601.96875 564.769531 601.539062 565.125 601.035156 565.347656 L 525.355469 599.191406 L 505.609375 555.113281 C 569.675781 508.078125 612.339844 424.007812 612.339844 328.140625 C 612.339844 323.835938 612.253906 319.5625 612.085938 315.316406 L 628.082031 308.160156 C 633.601562 305.699219 640.070312 308.167969 642.546875 313.679688 C 650.761719 332.039062 666.675781 367.558594 673.335938 382.480469 C 673.859375 383.644531 675.210938 384.164062 676.375 383.644531 C 676.992188 383.371094 677.457031 382.835938 677.644531 382.183594 C 683.113281 362.652344 703.394531 351.25 722.941406 356.71875 C 742.488281 362.179688 753.898438 382.441406 748.429688 401.96875 C 745.816406 411.296875 739.621094 419.214844 731.195312 424 L 731.191406 424.003906 " fill-opacity="1" fill-rule="nonzero"/><path fill="#efc8a8" d="M 533.753906 339.84375 C 531.78125 344.050781 529.421875 348.695312 526.667969 353.523438 C 518.855469 367.238281 505.121094 372.851562 505.121094 372.851562 C 505.121094 372.851562 511.046875 408.574219 512.921875 420.496094 C 514.238281 428.855469 512.667969 437.417969 508.472656 444.769531 C 502.730469 453.675781 487.710938 457.382812 482.351562 447.207031 L 456.148438 365.421875 L 472.652344 303.53125 " fill-opacity="1" fill-rule="nonzero"/><path fill="#7a7d82" d="M 553.921875 615.101562 L 564.289062 609.761719 L 577.753906 635.863281 L 567.386719 641.203125 L 553.921875 615.101562 " fill-opacity="1" fill-rule="nonzero"/><path fill="#7a7d82" d="M 469.976562 635.863281 L 483.441406 609.761719 L 493.808594 615.101562 L 480.34375 641.203125 L 469.976562 635.863281 " fill-opacity="1" fill-rule="nonzero"/><g clip-path="url(#cf6ed8c418)"><path fill="#7a7d82" d="M 517.664062 656.316406 L 518.40625 626.96875 L 530.0625 627.257812 L 529.324219 656.613281 L 517.664062 656.316406 " fill-opacity="1" fill-rule="nonzero"/></g><path fill="#7a7d82" d="M 800.695312 175.214844 L 811.0625 169.875 L 824.527344 195.972656 L 814.160156 201.3125 L 800.695312 175.214844 " fill-opacity="1" fill-rule="nonzero"/><path fill="#7a7d82" d="M 884.640625 195.972656 L 898.105469 169.875 L 908.472656 175.210938 L 895.003906 201.308594 L 884.640625 195.972656 " fill-opacity="1" fill-rule="nonzero"/><path fill="#7a7d82" d="M 848.386719 183.8125 L 849.125 154.460938 L 860.785156 154.757812 L 860.046875 184.109375 L 848.386719 183.8125 " fill-opacity="1" fill-rule="nonzero"/><path fill="#a94931" d="M 261.789062 257.644531 L 260.71875 269.375 L 263.300781 277.886719 L 259.054688 278.773438 L 256.886719 290.300781 L 248.898438 290.378906 L 240.679688 298.976562 L 223.453125 291.242188 L 226.480469 284.421875 C 226.480469 284.421875 236.980469 276.707031 237.421875 276.664062 C 235.019531 274.703125 234.425781 271.167969 235.082031 268.132812 C 235.367188 266.808594 235.921875 265.445312 237.058594 264.710938 C 238.484375 263.78125 240.480469 264.152344 241.792969 265.230469 C 243.105469 266.308594 243.839844 267.945312 244.703125 269.730469 C 246.636719 265.6875 248.960938 261.832031 251.644531 258.246094 C 252.621094 256.9375 253.714844 255.609375 255.226562 254.984375 C 256.746094 254.347656 258.777344 254.683594 261.789062 257.644531 Z M 261.789062 257.644531 " fill-opacity="1" fill-rule="nonzero"/><path fill="#a94931" d="M 221.664062 293.15625 L 236.160156 313.039062 L 227.347656 329.757812 L 209.945312 331.707031 L 208.390625 323.960938 L 178.800781 324.117188 C 178.800781 324.117188 175.882812 368.234375 176.089844 367.433594 C 176.734375 369.898438 177.71875 372.261719 179.023438 374.445312 C 179.179688 374.710938 179.351562 374.988281 179.359375 375.296875 C 179.371094 375.640625 179.195312 375.953125 179.015625 376.246094 C 177.746094 378.394531 176.476562 380.539062 174.578125 382.746094 C 174.394531 385.746094 174.207031 388.738281 174.023438 391.738281 L 165.96875 388.523438 L 159.070312 377.558594 L 162.851562 365.082031 L 159.726562 307.753906 Z M 221.664062 293.15625 " fill-opacity="1" fill-rule="nonzero"/><path fill="#a94931" d="M 252.652344 336.621094 L 264.199219 346.230469 C 264.199219 346.230469 277.539062 313.804688 277.417969 313.953125 C 277.273438 312.03125 277.132812 310.105469 276.609375 308.253906 C 276.367188 307.40625 276.046875 306.578125 275.820312 305.726562 C 275.339844 303.96875 275.242188 302.132812 275.328125 300.320312 C 275.449219 297.898438 275.910156 295.5 276.703125 293.214844 C 277.589844 293.179688 278.480469 293.136719 279.363281 293.097656 C 279.007812 296.328125 279.023438 299.589844 279.8125 303.261719 C 283.125 298.847656 285.613281 293.828125 287.125 288.527344 C 287.375 287.664062 287.625 286.742188 288.300781 286.15625 C 288.980469 285.570312 290.234375 285.578125 290.605469 286.398438 C 290.097656 290.464844 289.050781 294.457031 287.496094 298.25 C 289.429688 294.585938 290.8125 290.636719 291.582031 286.5625 C 292.3125 286.585938 293.03125 286.707031 293.722656 286.921875 C 293.671875 291.222656 292.667969 295.507812 290.792969 299.378906 C 293.136719 295.820312 294.6875 291.734375 295.285156 287.515625 C 296.148438 287.820312 297.011719 288.128906 297.875 288.4375 C 297.132812 293.050781 295.699219 297.546875 293.625 301.734375 C 295.761719 298.96875 297.417969 295.828125 298.480469 292.5 C 299.058594 292.84375 299.644531 293.183594 300.222656 293.527344 C 297.832031 302.8125 291.78125 310.652344 285.882812 318.203125 L 272.339844 369.554688 L 245.0625 354.257812 Z M 252.652344 336.621094 " fill-opacity="1" fill-rule="nonzero"/><path fill="#a94931" d="M 210.457031 353.019531 L 213.253906 366.984375 L 208.882812 383.472656 L 242.316406 387.222656 L 250.347656 352.890625 Z M 210.457031 353.019531 " fill-opacity="1" fill-rule="nonzero"/><path fill="#a94931" d="M 197.617188 401.84375 L 231.949219 426.003906 L 192.449219 477.519531 L 100.671875 532.132812 L 98.65625 515.566406 L 135.113281 478.8125 L 169.542969 463.265625 Z M 197.617188 401.84375 " fill-opacity="1" fill-rule="nonzero"/><path fill="#edaf42" d="M 215.886719 295.019531 L 223.554688 290.335938 L 241.101562 298.011719 L 260.46875 325.988281 L 249.683594 356.175781 L 210.820312 354.484375 C 210.820312 354.484375 208.355469 331.453125 208.359375 331.550781 C 212.769531 330.800781 217.234375 330.023438 221.273438 328.101562 C 225.308594 326.175781 228.917969 322.917969 230.238281 318.640625 C 231.09375 315.859375 230.929688 312.839844 230.230469 310.011719 C 228.746094 304.027344 224.574219 298.457031 215.886719 295.019531 Z M 215.886719 295.019531 " fill-opacity="1" fill-rule="nonzero"/><path fill="#000000" d="M 219.382812 273.953125 L 226.6875 285.148438 C 226.6875 285.148438 239.167969 277.09375 239.933594 276.945312 C 238.960938 275.03125 237.972656 273.074219 237.664062 270.953125 C 237.535156 270.082031 237.535156 269.167969 237.847656 268.34375 C 238.164062 267.523438 238.847656 266.808594 239.703125 266.625 C 241.003906 266.351562 242.238281 267.332031 242.984375 268.421875 C 243.734375 269.515625 244.21875 270.808594 245.175781 271.730469 C 245.175781 271.730469 256.609375 256.324219 257.730469 256.367188 C 259.296875 257.039062 260.753906 257.96875 262.023438 259.109375 C 261.066406 254.875 258.964844 250.910156 255.980469 247.753906 L 234.867188 243.375 C 234.867188 243.375 221.066406 251.347656 221.328125 251.503906 C 218.597656 256.695312 218.410156 262.824219 218.65625 268.6875 C 218.746094 270.835938 218.945312 273.144531 219.382812 273.953125 Z M 219.382812 273.953125 " fill-opacity="1" fill-rule="nonzero"/><path fill="#000000" d="M 221.15625 259.054688 L 215.722656 259.859375 L 198.152344 261.796875 L 176.167969 276.84375 C 176.167969 276.84375 173.230469 283.199219 172.960938 283.59375 C 170.589844 285.050781 167.886719 285.949219 165.128906 286.199219 C 177.824219 287.75 191.371094 286.871094 202.296875 280.214844 C 208.746094 276.292969 214.316406 270.386719 221.707031 268.902344 Z M 221.15625 259.054688 " fill-opacity="1" fill-rule="nonzero"/><path fill="#a94931" d="M 243.707031 395.351562 L 210.351562 427.039062 L 287.046875 439.367188 L 276.382812 458.121094 L 271.910156 518.066406 L 281.78125 520.050781 C 281.78125 520.050781 314.695312 427.582031 314.273438 428.191406 C 315.757812 424.570312 314.78125 420.070312 311.917969 417.398438 C 310.4375 416.011719 308.558594 415.128906 306.996094 413.828125 Z M 243.707031 395.351562 " fill-opacity="1" fill-rule="nonzero"/><path fill="#edaf42" d="M 208.789062 383.1875 L 243.898438 386.617188 L 245.644531 395.265625 C 245.644531 395.265625 208.8125 429.125 209.039062 428.410156 C 201.683594 423.925781 196.71875 415.742188 196.136719 407.136719 C 195.566406 398.542969 199.386719 389.757812 208.789062 383.1875 Z M 208.789062 383.1875 " fill-opacity="1" fill-rule="nonzero"/><path fill="#000000" d="M 260.097656 266.6875 C 259.140625 266.089844 258.308594 265.300781 257.371094 264.667969 C 256.4375 264.03125 255.332031 263.546875 254.207031 263.660156 C 253.441406 263.738281 252.730469 264.089844 252.066406 264.488281 C 253.414062 264.152344 254.847656 264.417969 256.144531 264.925781 C 257.445312 265.425781 258.628906 266.160156 260.097656 266.6875 Z M 260.097656 266.6875 " fill-opacity="1" fill-rule="nonzero"/><path fill="#ffffff" d="M 259.0625 268.007812 C 259.0625 268.007812 257.984375 271.367188 257.695312 271.429688 C 256.039062 270.273438 254.625 268.773438 253.5625 267.050781 C 255.320312 267.144531 257.058594 267.453125 259.0625 268.007812 Z M 259.0625 268.007812 " fill-opacity="1" fill-rule="nonzero"/><path fill="#000000" d="M 260.054688 267.316406 C 259.742188 267.652344 259.25 267.773438 258.792969 267.753906 C 258.335938 267.730469 257.886719 267.589844 257.445312 267.464844 C 256.507812 267.210938 255.5625 267.039062 254.597656 266.945312 C 254.054688 266.894531 253.476562 266.875 253 267.132812 C 254.621094 267.324219 256.230469 267.59375 257.820312 267.945312 C 258.207031 268.03125 258.605469 268.125 259 268.082031 C 259.398438 268.046875 259.796875 267.832031 260.054688 267.316406 Z M 260.054688 267.316406 " fill-opacity="1" fill-rule="nonzero"/><path fill="#ffffff" d="M 256.609375 280.972656 C 254.476562 280.742188 252.445312 279.644531 251.074219 277.988281 C 251.910156 279.730469 253.320312 281.265625 255.15625 281.871094 C 255.617188 282.023438 256.160156 282.101562 256.609375 280.972656 Z M 256.609375 280.972656 " fill-opacity="1" fill-rule="nonzero"/><path fill="#000000" d="M 100.445312 512.628906 C 101.117188 519.59375 101.785156 526.5625 102.457031 533.527344 C 98.613281 535.226562 94.589844 537.078125 92.132812 540.484375 C 91.25 541.710938 90.609375 543.097656 89.980469 544.484375 C 86.691406 551.738281 83.6875 559.125 81 566.617188 L 81.878906 534.984375 L 87.417969 513.421875 Z M 100.445312 512.628906 " fill-opacity="1" fill-rule="nonzero"/><path fill="#000000" d="M 283.015625 516.53125 L 295.714844 531.925781 L 312.332031 543.996094 L 266.660156 529.871094 C 266.660156 529.871094 270.246094 514.378906 270.496094 513.988281 C 272.359375 514.085938 273.90625 515.363281 275.371094 516.523438 C 275.785156 516.851562 276.203125 517.171875 276.6875 517.394531 C 278.652344 518.273438 280.890625 517.144531 283.015625 516.53125 Z M 283.015625 516.53125 " fill-opacity="1" fill-rule="nonzero"/><g clip-path="url(#c40338b8d9)"><path fill="#000000" d="M 1203.585938 249.480469 C 1117.636719 249.480469 1047.960938 319.109375 1047.960938 405 C 1047.960938 490.890625 1117.636719 560.519531 1203.585938 560.519531 C 1289.535156 560.519531 1359.210938 490.890625 1359.210938 405 C 1359.210938 319.109375 1289.535156 249.480469 1203.585938 249.480469 Z M 1073.898438 405 C 1073.898438 333.425781 1131.960938 275.398438 1203.585938 275.398438 C 1275.210938 275.398438 1333.273438 333.425781 1333.273438 405 C 1333.273438 463.324219 1294.71875 512.652344 1241.6875 528.914062 C 1243.136719 502.722656 1242.640625 486.496094 1240.195312 480.242188 C 1237.617188 473.636719 1235.519531 470.929688 1234.257812 469.308594 C 1233.429688 468.242188 1232.96875 467.644531 1232.96875 466.722656 C 1232.96875 465.167969 1234.0625 464.039062 1236.253906 463.339844 C 1255.363281 459.121094 1268.175781 447.382812 1274.695312 428.136719 C 1283.726562 401.464844 1270.835938 382.070312 1265.617188 374.222656 C 1265.1875 373.574219 1264.808594 373.003906 1264.5 372.515625 C 1260.445312 366.117188 1265.757812 350.542969 1272.101562 338.082031 C 1250.523438 333.757812 1242.285156 343.777344 1237.554688 349.523438 C 1235.625 351.871094 1234.28125 353.503906 1232.855469 353.15625 C 1231.582031 352.847656 1230.207031 352.246094 1228.5625 351.523438 C 1223.851562 349.453125 1216.902344 346.398438 1203.585938 346.398438 C 1187.070312 346.398438 1176.128906 352.164062 1174.457031 353.046875 C 1174.308594 353.125 1174.230469 353.15625 1174.230469 353.15625 C 1165.550781 341.066406 1153.222656 336.042969 1137.246094 338.082031 C 1141.648438 355.652344 1141.976562 367.128906 1138.238281 372.515625 C 1132.632812 380.59375 1122.121094 399.386719 1130.28125 428.136719 C 1138.441406 456.882812 1168.148438 463.339844 1173.804688 463.339844 L 1173.84375 463.347656 C 1174.292969 463.445312 1178.453125 464.34375 1177.203125 467.855469 C 1176.957031 468.792969 1176.792969 470.0625 1176.609375 471.496094 C 1176.023438 476.101562 1175.21875 482.355469 1170.804688 484.390625 C 1165.011719 487.054688 1152.230469 488.511719 1146.886719 485.183594 C 1145.105469 484.074219 1143.824219 481.753906 1142.285156 478.960938 C 1139.199219 473.367188 1135.070312 465.871094 1123.769531 462.386719 C 1106.824219 457.160156 1107.886719 464.070312 1112.113281 465.769531 C 1113.046875 466.140625 1114.28125 466.492188 1115.691406 466.890625 C 1120.679688 468.300781 1127.855469 470.332031 1131.535156 476.25 C 1132.613281 477.984375 1133.722656 479.882812 1134.859375 481.824219 C 1138.6875 488.375 1142.789062 495.398438 1146.886719 498.09375 C 1150.425781 500.421875 1158.914062 501.351562 1172.351562 500.886719 C 1171.765625 513.5625 1171.453125 523.460938 1171.414062 530.582031 C 1115.351562 516.28125 1073.898438 465.480469 1073.898438 405 Z M 1073.898438 405 " fill-opacity="0.85" fill-rule="evenodd"/></g></svg>