<svg xmlns="http://www.w3.org/2000/svg" xmlns:xlink="http://www.w3.org/1999/xlink" width="1920" zoomAndPan="magnify" viewBox="0 0 1440 809.999993" height="1080" preserveAspectRatio="xMidYMid meet" version="1.0"><path fill="#ffcc4d" d="M 1044 405 C 1044 583.9375 898.9375 729 720 729 C 541.078125 729 396 583.9375 396 405 C 396 226.078125 541.078125 81 720 81 C 898.9375 81 1044 226.078125 1044 405 " fill-opacity="1" fill-rule="nonzero"/><path fill="#664500" d="M 854.730469 618.820312 C 853.921875 615.601562 833.707031 540 720 540 C 606.277344 540 586.078125 615.601562 585.269531 618.820312 C 584.28125 622.726562 586.042969 626.777344 589.535156 628.792969 C 593.046875 630.757812 597.4375 630.214844 600.335938 627.40625 C 600.679688 627.066406 635.507812 594 720 594 C 804.492188 594 839.339844 627.066406 839.664062 627.390625 C 841.390625 629.101562 843.695312 630 846 630 C 847.511719 630 849.042969 629.621094 850.429688 628.847656 C 853.957031 626.832031 855.71875 622.746094 854.730469 618.820312 Z M 678.726562 392.273438 C 620.136719 333.683594 525.976562 333 522 333 C 512.0625 333 504.019531 341.046875 504.019531 350.964844 C 504 360.898438 512.046875 368.964844 521.980469 369 C 522.503906 369 556.632812 369.394531 593.675781 382.265625 C 583.003906 393.785156 576 411.679688 576 432 C 576 466.8125 596.140625 495 621 495 C 645.859375 495 666 466.8125 666 432 C 666 428.867188 665.65625 425.878906 665.332031 422.875 C 665.566406 422.875 665.785156 423 666 423 C 670.609375 423 675.214844 421.234375 678.726562 417.726562 C 685.765625 410.6875 685.765625 399.3125 678.726562 392.273438 Z M 918 333 C 914.023438 333 819.882812 333.683594 761.273438 392.273438 C 754.234375 399.3125 754.234375 410.6875 761.273438 417.726562 C 764.785156 421.234375 769.390625 423 774 423 C 774.234375 423 774.433594 422.875 774.648438 422.875 C 774.359375 425.878906 774 428.867188 774 432 C 774 466.8125 794.140625 495 819 495 C 843.859375 495 864 466.8125 864 432 C 864 411.679688 856.996094 393.785156 846.324219 382.265625 C 883.367188 369.394531 917.496094 369 918.035156 369 C 927.953125 368.964844 936 360.898438 935.980469 350.964844 C 935.964844 341.046875 927.9375 333 918 333 Z M 918 333 " fill-opacity="1" fill-rule="nonzero"/></svg>