<svg xmlns="http://www.w3.org/2000/svg" xml:space="preserve" viewBox="0 0 259 259">
  <path fill="#FFF" d="M0 0h259v259H0z"/>
  <path d="M70 14h7v7h-7zM77 14h7v7h-7zM91 14h7v7h-7zM98 14h7v7h-7zM105 14h7v7h-7zM112 14h7v7h-7zM119 14h7v7h-7zM126 14h7v7h-7zM133 14h7v7h-7zM140 14h7v7h-7zM175 14h7v7h-7zM77 21h7v7h-7zM98 21h7v7h-7zM105 21h7v7h-7zM112 21h7v7h-7zM126 21h7v7h-7zM147 21h7v7h-7zM161 21h7v7h-7zM77 28h7v7h-7zM84 28h7v7h-7zM98 28h7v7h-7zM112 28h7v7h-7zM133 28h7v7h-7zM140 28h7v7h-7zM154 28h7v7h-7zM161 28h7v7h-7zM168 28h7v7h-7zM175 28h7v7h-7zM182 28h7v7h-7zM70 35h7v7h-7zM84 35h7v7h-7zM98 35h7v7h-7zM126 35h7v7h-7zM133 35h7v7h-7zM147 35h7v7h-7zM182 35h7v7h-7zM70 42h7v7h-7zM98 42h7v7h-7zM105 42h7v7h-7zM126 42h7v7h-7zM133 42h7v7h-7zM140 42h7v7h-7zM168 42h7v7h-7zM175 42h7v7h-7zM70 49h7v7h-7zM77 49h7v7h-7zM91 49h7v7h-7zM98 49h7v7h-7zM105 49h7v7h-7zM112 49h7v7h-7zM119 49h7v7h-7zM133 49h7v7h-7zM147 49h7v7h-7zM70 56h7v7h-7zM84 56h7v7h-7zM98 56h7v7h-7zM112 56h7v7h-7zM126 56h7v7h-7zM140 56h7v7h-7zM154 56h7v7h-7zM168 56h7v7h-7zM182 56h7v7h-7zM70 63h7v7h-7zM112 63h7v7h-7zM133 63h7v7h-7zM140 63h7v7h-7zM147 63h7v7h-7zM154 63h7v7h-7zM161 63h7v7h-7zM175 63h7v7h-7zM182 63h7v7h-7zM14 70h7v7h-7zM42 70h7v7h-7zM56 70h7v7h-7zM63 70h7v7h-7zM70 70h7v7h-7zM77 70h7v7h-7zM119 70h7v7h-7zM133 70h7v7h-7zM154 70h7v7h-7zM161 70h7v7h-7zM168 70h7v7h-7zM182 70h7v7h-7zM189 70h7v7h-7zM196 70h7v7h-7zM203 70h7v7h-7zM210 70h7v7h-7zM217 70h7v7h-7zM238 70h7v7h-7zM21 77h7v7h-7zM35 77h7v7h-7zM42 77h7v7h-7zM49 77h7v7h-7zM77 77h7v7h-7zM91 77h7v7h-7zM98 77h7v7h-7zM112 77h7v7h-7zM119 77h7v7h-7zM126 77h7v7h-7zM133 77h7v7h-7zM154 77h7v7h-7zM175 77h7v7h-7zM182 77h7v7h-7zM189 77h7v7h-7zM217 77h7v7h-7zM224 77h7v7h-7zM231 77h7v7h-7zM28 84h7v7h-7zM56 84h7v7h-7zM63 84h7v7h-7zM70 84h7v7h-7zM91 84h7v7h-7zM105 84h7v7h-7zM112 84h7v7h-7zM119 84h7v7h-7zM126 84h7v7h-7zM140 84h7v7h-7zM154 84h7v7h-7zM168 84h7v7h-7zM175 84h7v7h-7zM182 84h7v7h-7zM196 84h7v7h-7zM217 84h7v7h-7zM231 84h7v7h-7zM42 91h7v7h-7zM49 91h7v7h-7zM84 91h7v7h-7zM105 91h7v7h-7zM126 91h7v7h-7zM147 91h7v7h-7zM154 91h7v7h-7zM161 91h7v7h-7zM168 91h7v7h-7zM231 91h7v7h-7zM14 98h7v7h-7zM21 98h7v7h-7zM28 98h7v7h-7zM35 98h7v7h-7zM42 98h7v7h-7zM56 98h7v7h-7zM77 98h7v7h-7zM105 98h7v7h-7zM126 98h7v7h-7zM147 98h7v7h-7zM154 98h7v7h-7zM161 98h7v7h-7zM168 98h7v7h-7zM182 98h7v7h-7zM196 98h7v7h-7zM210 98h7v7h-7zM217 98h7v7h-7zM231 98h7v7h-7zM14 105h7v7h-7zM21 105h7v7h-7zM42 105h7v7h-7zM49 105h7v7h-7zM70 105h7v7h-7zM98 105h7v7h-7zM105 105h7v7h-7zM112 105h7v7h-7zM140 105h7v7h-7zM161 105h7v7h-7zM175 105h7v7h-7zM203 105h7v7h-7zM217 105h7v7h-7zM14 112h7v7h-7zM35 112h7v7h-7zM49 112h7v7h-7zM56 112h7v7h-7zM70 112h7v7h-7zM91 112h7v7h-7zM98 112h7v7h-7zM112 112h7v7h-7zM119 112h7v7h-7zM154 112h7v7h-7zM161 112h7v7h-7zM175 112h7v7h-7zM189 112h7v7h-7zM196 112h7v7h-7zM217 112h7v7h-7zM224 112h7v7h-7zM231 112h7v7h-7zM21 119h7v7h-7zM35 119h7v7h-7zM42 119h7v7h-7zM84 119h7v7h-7zM91 119h7v7h-7zM105 119h7v7h-7zM112 119h7v7h-7zM119 119h7v7h-7zM126 119h7v7h-7zM133 119h7v7h-7zM147 119h7v7h-7zM161 119h7v7h-7zM182 119h7v7h-7zM189 119h7v7h-7zM196 119h7v7h-7zM28 126h7v7h-7zM42 126h7v7h-7zM49 126h7v7h-7zM56 126h7v7h-7zM70 126h7v7h-7zM84 126h7v7h-7zM98 126h7v7h-7zM112 126h7v7h-7zM126 126h7v7h-7zM133 126h7v7h-7zM140 126h7v7h-7zM147 126h7v7h-7zM154 126h7v7h-7zM161 126h7v7h-7zM168 126h7v7h-7zM175 126h7v7h-7zM196 126h7v7h-7zM210 126h7v7h-7zM231 126h7v7h-7zM14 133h7v7h-7zM21 133h7v7h-7zM28 133h7v7h-7zM42 133h7v7h-7zM91 133h7v7h-7zM105 133h7v7h-7zM112 133h7v7h-7zM119 133h7v7h-7zM126 133h7v7h-7zM140 133h7v7h-7zM161 133h7v7h-7zM175 133h7v7h-7zM189 133h7v7h-7zM217 133h7v7h-7zM224 133h7v7h-7zM231 133h7v7h-7zM42 140h7v7h-7zM56 140h7v7h-7zM63 140h7v7h-7zM77 140h7v7h-7zM105 140h7v7h-7zM112 140h7v7h-7zM119 140h7v7h-7zM126 140h7v7h-7zM133 140h7v7h-7zM175 140h7v7h-7zM182 140h7v7h-7zM189 140h7v7h-7zM203 140h7v7h-7zM217 140h7v7h-7zM231 140h7v7h-7zM14 147h7v7h-7zM28 147h7v7h-7zM77 147h7v7h-7zM91 147h7v7h-7zM98 147h7v7h-7zM105 147h7v7h-7zM112 147h7v7h-7zM119 147h7v7h-7zM126 147h7v7h-7zM133 147h7v7h-7zM140 147h7v7h-7zM147 147h7v7h-7zM154 147h7v7h-7zM161 147h7v7h-7zM182 147h7v7h-7zM189 147h7v7h-7zM203 147h7v7h-7zM14 154h7v7h-7zM21 154h7v7h-7zM28 154h7v7h-7zM35 154h7v7h-7zM42 154h7v7h-7zM49 154h7v7h-7zM56 154h7v7h-7zM63 154h7v7h-7zM84 154h7v7h-7zM91 154h7v7h-7zM105 154h7v7h-7zM140 154h7v7h-7zM154 154h7v7h-7zM161 154h7v7h-7zM168 154h7v7h-7zM182 154h7v7h-7zM196 154h7v7h-7zM210 154h7v7h-7zM217 154h7v7h-7zM231 154h7v7h-7zM14 161h7v7h-7zM35 161h7v7h-7zM42 161h7v7h-7zM49 161h7v7h-7zM70 161h7v7h-7zM84 161h7v7h-7zM105 161h7v7h-7zM112 161h7v7h-7zM126 161h7v7h-7zM133 161h7v7h-7zM168 161h7v7h-7zM175 161h7v7h-7zM189 161h7v7h-7zM203 161h7v7h-7zM217 161h7v7h-7zM224 161h7v7h-7zM231 161h7v7h-7zM35 168h7v7h-7zM42 168h7v7h-7zM49 168h7v7h-7zM56 168h7v7h-7zM63 168h7v7h-7zM70 168h7v7h-7zM77 168h7v7h-7zM84 168h7v7h-7zM91 168h7v7h-7zM126 168h7v7h-7zM133 168h7v7h-7zM140 168h7v7h-7zM161 168h7v7h-7zM168 168h7v7h-7zM175 168h7v7h-7zM182 168h7v7h-7zM203 168h7v7h-7zM224 168h7v7h-7zM231 168h7v7h-7zM28 175h7v7h-7zM35 175h7v7h-7zM42 175h7v7h-7zM63 175h7v7h-7zM77 175h7v7h-7zM98 175h7v7h-7zM105 175h7v7h-7zM133 175h7v7h-7zM140 175h7v7h-7zM147 175h7v7h-7zM154 175h7v7h-7zM161 175h7v7h-7zM175 175h7v7h-7zM189 175h7v7h-7zM217 175h7v7h-7zM231 175h7v7h-7zM14 182h7v7h-7zM21 182h7v7h-7zM35 182h7v7h-7zM56 182h7v7h-7zM77 182h7v7h-7zM91 182h7v7h-7zM98 182h7v7h-7zM105 182h7v7h-7zM119 182h7v7h-7zM126 182h7v7h-7zM133 182h7v7h-7zM154 182h7v7h-7zM161 182h7v7h-7zM168 182h7v7h-7zM182 182h7v7h-7zM189 182h7v7h-7zM196 182h7v7h-7zM203 182h7v7h-7zM210 182h7v7h-7zM238 182h7v7h-7zM70 189h7v7h-7zM77 189h7v7h-7zM84 189h7v7h-7zM91 189h7v7h-7zM98 189h7v7h-7zM119 189h7v7h-7zM126 189h7v7h-7zM133 189h7v7h-7zM140 189h7v7h-7zM168 189h7v7h-7zM182 189h7v7h-7zM210 189h7v7h-7zM224 189h7v7h-7zM231 189h7v7h-7zM70 196h7v7h-7zM77 196h7v7h-7zM84 196h7v7h-7zM98 196h7v7h-7zM105 196h7v7h-7zM112 196h7v7h-7zM119 196h7v7h-7zM126 196h7v7h-7zM140 196h7v7h-7zM154 196h7v7h-7zM168 196h7v7h-7zM182 196h7v7h-7zM196 196h7v7h-7zM210 196h7v7h-7zM217 196h7v7h-7zM231 196h7v7h-7zM105 203h7v7h-7zM119 203h7v7h-7zM126 203h7v7h-7zM161 203h7v7h-7zM168 203h7v7h-7zM182 203h7v7h-7zM210 203h7v7h-7zM231 203h7v7h-7zM238 203h7v7h-7zM70 210h7v7h-7zM77 210h7v7h-7zM105 210h7v7h-7zM126 210h7v7h-7zM154 210h7v7h-7zM161 210h7v7h-7zM168 210h7v7h-7zM182 210h7v7h-7zM189 210h7v7h-7zM196 210h7v7h-7zM203 210h7v7h-7zM210 210h7v7h-7zM217 210h7v7h-7zM231 210h7v7h-7zM238 210h7v7h-7zM91 217h7v7h-7zM105 217h7v7h-7zM140 217h7v7h-7zM154 217h7v7h-7zM161 217h7v7h-7zM168 217h7v7h-7zM196 217h7v7h-7zM203 217h7v7h-7zM210 217h7v7h-7zM217 217h7v7h-7zM77 224h7v7h-7zM119 224h7v7h-7zM133 224h7v7h-7zM154 224h7v7h-7zM168 224h7v7h-7zM175 224h7v7h-7zM189 224h7v7h-7zM196 224h7v7h-7zM203 224h7v7h-7zM210 224h7v7h-7zM217 224h7v7h-7zM224 224h7v7h-7zM84 231h7v7h-7zM98 231h7v7h-7zM112 231h7v7h-7zM119 231h7v7h-7zM126 231h7v7h-7zM133 231h7v7h-7zM140 231h7v7h-7zM147 231h7v7h-7zM161 231h7v7h-7zM168 231h7v7h-7zM175 231h7v7h-7zM182 231h7v7h-7zM189 231h7v7h-7zM196 231h7v7h-7zM70 238h7v7h-7zM77 238h7v7h-7zM84 238h7v7h-7zM91 238h7v7h-7zM112 238h7v7h-7zM126 238h7v7h-7zM133 238h7v7h-7zM147 238h7v7h-7zM154 238h7v7h-7zM161 238h7v7h-7zM168 238h7v7h-7zM175 238h7v7h-7zM182 238h7v7h-7zM196 238h7v7h-7zM238 238h7v7h-7z"/>
  <path fill="none" d="M21 21h35v35H21z"/>
  <path d="M56 14H14v49h49V14h-7zm0 42H21V21h35v35z"/>
  <path fill="none" d="M203 21h35v35h-35z"/>
  <path d="M238 14h-42v49h49V14h-7zm0 42h-35V21h35v35z"/>
  <path fill="none" d="M21 203h35v35H21z"/>
  <path d="M56 196H14v49h49v-49h-7zm0 42H21v-35h35v35zM28 28h21v21H28zM210 28h21v21h-21z"/>
  <path d="M28 210h21v21H28z"/>
</svg>
