<svg xmlns="http://www.w3.org/2000/svg" xmlns:xlink="http://www.w3.org/1999/xlink" width="1920" zoomAndPan="magnify" viewBox="0 0 1440 809.999993" height="1080" preserveAspectRatio="xMidYMid meet" version="1.0"><path fill="#ffcc4d" d="M 1041.328125 408.558594 C 1041.328125 585.53125 897.863281 729 720.890625 729 C 543.917969 729 400.449219 585.53125 400.449219 408.558594 C 400.449219 231.589844 543.917969 88.121094 720.890625 88.121094 C 897.863281 88.121094 1041.328125 231.589844 1041.328125 408.558594 " fill-opacity="1" fill-rule="nonzero"/><path fill="#664500" d="M 720.890625 477.082031 C 668.089844 477.082031 633.035156 470.921875 589.707031 462.5 C 579.789062 460.613281 560.546875 462.5 560.546875 491.660156 C 560.546875 549.964844 627.535156 622.84375 720.890625 622.84375 C 814.246094 622.84375 881.234375 549.964844 881.234375 491.660156 C 881.234375 462.5 861.972656 460.597656 852.074219 462.5 C 808.742188 470.921875 773.710938 477.082031 720.890625 477.082031 " fill-opacity="1" fill-rule="nonzero"/><path fill="#e75a70" d="M 696.855469 146.53125 C 681.566406 103.253906 634.121094 80.539062 590.828125 95.792969 C 564.550781 105.050781 545.949219 126.253906 538.703125 151.050781 C 517.5 136.292969 489.730469 131.46875 463.488281 140.726562 C 420.230469 156 397.476562 203.480469 412.769531 246.757812 C 414.941406 252.878906 417.824219 258.558594 421.171875 263.8125 C 455.90625 327.578125 556.253906 372.402344 617.015625 372.957031 C 663.957031 334.378906 713.964844 236.503906 701.003906 165.078125 C 700.328125 158.882812 698.992188 152.652344 696.855469 146.53125 Z M 744.921875 146.53125 C 760.214844 103.253906 807.675781 80.539062 850.953125 95.792969 C 877.230469 105.050781 895.832031 126.253906 903.09375 151.050781 C 924.296875 136.292969 952.070312 131.46875 978.308594 140.726562 C 1021.570312 156 1044.300781 203.480469 1029.046875 246.757812 C 1026.855469 252.878906 1023.988281 258.558594 1020.625 263.8125 C 985.894531 327.578125 885.542969 372.402344 824.765625 372.957031 C 777.820312 334.378906 727.832031 236.503906 740.792969 165.078125 C 741.453125 158.882812 742.785156 152.652344 744.921875 146.53125 Z M 744.921875 146.53125 " fill-opacity="1" fill-rule="nonzero"/></svg>